<?xml version="1.0" encoding="UTF-8"?>
<svg version="1.1" xmlns="http://www.w3.org/2000/svg" width="616" height="386">
<path d="M0 0 C203.28 0 406.56 0 616 0 C616 127.38 616 254.76 616 386 C412.72 386 209.44 386 0 386 C0 258.62 0 131.24 0 0 Z " fill="#FDFDFD" transform="translate(0,0)"/>
<path d="M0 0 C2.16535367 0.01610836 4.32884214 0.00002809 6.49414062 -0.01904297 C23.94209477 -0.0458493 41.33311486 3.39253735 56.08007812 13.15673828 C58.25543038 14.44402538 59.63861398 15.22617728 62.16601562 15.39111328 C64.61597623 14.13926184 64.61597623 14.13926184 67.10351562 12.26611328 C83.05188898 1.56981469 100.1745477 0.15701558 118.79101562 0.14111328 C119.50255798 0.14043854 120.21410034 0.13976379 120.94720459 0.1390686 C131.31167382 0.15468258 141.14932197 0.4685956 151.16601562 3.39111328 C152.36484375 3.73142578 153.56367188 4.07173828 154.79882812 4.42236328 C171.6587995 9.81172778 185.06111415 20.83282299 193.29785156 36.54638672 C198.86585778 48.37761704 201.49701273 61.70839645 201.39306641 74.70605469 C201.39335846 75.68287201 201.39365051 76.65968933 201.39395142 77.66610718 C201.3925707 80.85839069 201.37706928 84.05043361 201.36132812 87.24267578 C201.35759352 89.47040683 201.35474866 91.69813952 201.35275269 93.9258728 C201.34515151 99.76194876 201.32553346 105.59792366 201.30334473 111.43395996 C201.27919383 118.45087089 201.27008857 125.46781579 201.25843811 132.48475647 C201.23910686 143.12027882 201.20075965 153.75557984 201.16601562 164.39111328 C185.32601563 164.39111328 169.48601562 164.39111328 153.16601562 164.39111328 C153.12734375 154.20494141 153.12734375 154.20494141 153.08789062 143.81298828 C153.06270309 139.49263884 153.0363554 135.17235807 153.00585938 130.85205078 C152.9576398 124.00536909 152.91355169 117.15884653 152.89501953 110.31201172 C152.87979651 104.78751034 152.84525091 99.26342726 152.7977066 93.73911285 C152.78295091 91.63900656 152.77497797 89.53884052 152.77413177 87.43868256 C153.01220099 67.62632742 153.01220099 67.62632742 144.16601562 50.39111328 C136.23017661 43.99921182 128.78131282 42.03868954 118.72851562 42.07861328 C117.92091797 42.0625 117.11332031 42.04638672 116.28125 42.02978516 C107.21689077 42.02248108 100.84321817 44.75790624 94.21679688 50.93798828 C87.32017926 59.1876566 86.02972991 69.26006833 85.96069336 79.58764648 C85.95079376 80.50521225 85.94089417 81.42277802 85.93069458 82.3681488 C85.89917661 85.39270471 85.87436055 88.41727631 85.84960938 91.44189453 C85.82903147 93.54225567 85.80803478 95.64261275 85.78663635 97.7429657 C85.7315021 103.26503199 85.68205472 108.78713511 85.63378906 114.30926514 C85.57466748 120.93815379 85.50848714 127.56697527 85.44348907 134.19580841 C85.34558838 144.26086893 85.25665782 154.32597299 85.16601562 164.39111328 C69.32601562 164.39111328 53.48601562 164.39111328 37.16601562 164.39111328 C37.14023438 157.75630859 37.11445313 151.12150391 37.08789062 144.28564453 C37.06269893 140.06099751 37.03634806 135.83642044 37.00585938 131.61181641 C36.95766598 124.91886203 36.91356817 118.22606974 36.89501953 111.53295898 C36.87978081 106.13164225 36.84520806 100.730752 36.7977066 95.32962608 C36.7829669 93.27779554 36.77497891 91.22590408 36.77413177 89.17402077 C36.9601772 69.03812369 36.9601772 69.03812369 28.16601562 51.39111328 C20.81066945 44.37010103 13.95865778 41.68144286 3.79101562 41.89111328 C2.86216553 41.90247314 1.93331543 41.91383301 0.97631836 41.92553711 C-5.59891478 42.11237623 -11.17115092 42.81771104 -16.83398438 46.39111328 C-17.90648437 47.05111328 -18.97898438 47.71111328 -20.08398438 48.39111328 C-25.83553176 53.63468925 -29.53591226 62.68081464 -29.93751717 70.37453651 C-29.99712113 72.84039364 -30.02316921 75.30471251 -30.03930664 77.77124023 C-30.04920624 78.70831314 -30.05910583 79.64538605 -30.06930542 80.6108551 C-30.10082855 83.70034277 -30.12564151 86.78984579 -30.15039062 89.87939453 C-30.17096808 92.02459609 -30.19196476 94.16979366 -30.21336365 96.31498718 C-30.26850251 101.95542165 -30.31794787 107.59589222 -30.36621094 113.23638916 C-30.42532828 120.00711253 -30.49151117 126.77777007 -30.55651093 133.54843903 C-30.65441743 143.82929017 -30.74334403 154.11018394 -30.83398438 164.39111328 C-47.00398438 164.39111328 -63.17398438 164.39111328 -79.83398438 164.39111328 C-79.9543108 142.23322439 -79.9543108 142.23322439 -79.98046875 132.66455078 C-79.99828492 126.17847169 -80.01917876 119.69252165 -80.06030273 113.20654297 C-80.09330637 107.96748202 -80.1109222 102.72855979 -80.1186161 97.48940277 C-80.12408707 95.50749279 -80.13476599 93.52558893 -80.15117455 91.54373932 C-80.35752792 65.5457453 -77.81024986 39.87480444 -59.08398438 20.14111328 C-42.7952563 4.63856816 -21.85634566 -0.19250169 0 0 Z " fill="#2F4187" transform="translate(138.833984375,153.60888671875)"/>
<path d="M0 0 C15.84 0 31.68 0 48 0 C48.25 15.3125 48.25 15.3125 48.29785156 20.0715332 C48.57791098 31.70652808 50.4725792 42.43364121 59 51 C62.76604337 53.84997876 66.78281188 55.89140594 71 58 C71 48.76 71 39.52 71 30 C74.96 30 78.92 30 83 30 C83 40.56 83 51.12 83 62 C84.98 62 86.96 62 89 62 C89 47.81 89 33.62 89 19 C92.96 19 96.92 19 101 19 C101 33.19 101 47.38 101 62 C102.98 61.67 104.96 61.34 107 61 C107.33 53.08 107.66 45.16 108 37 C111.96 37 115.92 37 120 37 C120 43.93 120 50.86 120 58 C130.04485345 52.91706211 135.74076129 48.58299924 140 38 C141.60012221 33.07182081 142.28524952 28.70914421 142.4140625 23.53515625 C142.44967285 22.29386963 142.4852832 21.05258301 142.52197266 19.77368164 C142.57297119 17.44164673 142.57297119 17.44164673 142.625 15.0625 C142.74875 10.091875 142.8725 5.12125 143 0 C158.84 0 174.68 0 191 0 C191.0825 5.775 191.165 11.55 191.25 17.5 C191.28641602 19.28599609 191.32283203 21.07199219 191.36035156 22.91210938 C191.6134173 44.40183961 185.43043471 65.09520115 170.23046875 80.83203125 C169.82441406 81.21746094 169.41835938 81.60289062 169 82 C170.415198 85.23065401 172.13781038 87.2727195 174.625 89.75 C178.21560013 93.73883033 180.81309345 97.81859339 183.25 102.5625 C183.56662598 103.15579102 183.88325195 103.74908203 184.20947266 104.36035156 C190.94553877 118.05854998 191.54615603 132.05067257 191.25 147 C191.1675 152.94 191.085 158.88 191 165 C175.16 165 159.32 165 143 165 C142.75 149.125 142.75 149.125 142.70214844 144.18017578 C142.40900805 131.58902476 140.158864 123.35985602 131.2890625 114.12890625 C119.73884806 103.38681261 102.9744362 103.52555904 88.11474609 103.90673828 C76.37371538 104.4245256 64.17578144 108.21571575 56 117 C51.17870595 124.72825076 48.90536199 131.36590463 48.68359375 140.390625 C48.62643188 142.32470215 48.62643188 142.32470215 48.56811523 144.29785156 C48.52501221 145.93206055 48.48190918 147.56626953 48.4375 149.25 C48.293125 154.4475 48.14875 159.645 48 165 C31.83 165 15.66 165 -1 165 C-1.46263786 133.54062579 -0.75134022 106.93322802 22 83 C21.175 82.0925 20.35 81.185 19.5 80.25 C11.63648611 70.97365619 6.52917072 61.64079179 3 50 C2.64679688 48.91332031 2.29359375 47.82664063 1.9296875 46.70703125 C-0.60328709 36.60706113 -0.12019361 26.21594142 -0.0625 15.875 C-0.041875 10.63625 -0.02125 5.3975 0 0 Z " fill="#2F4187" transform="translate(362,153)"/>
<path d="M0 0 C5.03135849 2.96916981 9.10563014 6.80891654 11.74609375 12.08984375 C12.4606419 20.37585404 11.90412277 26.33434978 6.43359375 32.83984375 C1.44729041 37.01442329 -2.5684008 38.62422043 -9.015625 38.375 C-15.19302101 37.5880019 -19.3286613 34.77833078 -23.25390625 30.08984375 C-27.13759283 24.59911444 -27.04711499 18.56920051 -26.25390625 12.08984375 C-21.58591592 2.21524882 -10.73365021 -4.33438561 0 0 Z " fill="#314287" transform="translate(264.25390625,216.91015625)"/>
<path d="M0 0 C5.94467356 4.40416197 5.94467356 4.40416197 7.07421875 7.8046875 C7.15929687 8.38734375 7.244375 8.97 7.33203125 9.5703125 C7.99203125 9.5703125 8.65203125 9.5703125 9.33203125 9.5703125 C12.45200927 12.87381864 13.33203125 13.89441083 13.33203125 18.5703125 C8.4631515 20.47036313 5.90913191 20.5703125 0.33203125 20.5703125 C0.33203125 33.4403125 0.33203125 46.3103125 0.33203125 59.5703125 C-1.97796875 59.5703125 -4.28796875 59.5703125 -6.66796875 59.5703125 C-6.66796875 47.0303125 -6.66796875 34.4903125 -6.66796875 21.5703125 C-10.29796875 21.5703125 -13.92796875 21.5703125 -17.66796875 21.5703125 C-18.66796875 16.5703125 -18.66796875 16.5703125 -17.66796875 13.5703125 C-18.10109375 14.0653125 -18.53421875 14.5603125 -18.98046875 15.0703125 C-20.66796875 16.5703125 -20.66796875 16.5703125 -23.66796875 16.5703125 C-23.99796875 18.8803125 -24.32796875 21.1903125 -24.66796875 23.5703125 C-25.32796875 23.5703125 -25.98796875 23.5703125 -26.66796875 23.5703125 C-29.49482387 12.43957045 -29.49482387 12.43957045 -28.66796875 7.5703125 C-22.39375991 -0.53466852 -9.35093002 -5.01089369 0 0 Z " fill="#D1D1DB" transform="translate(85.66796875,61.4296875)"/>
<path d="M0 0 C2.41049138 1.08922007 3.95375076 2.27684275 6 4 C6 3.01 6 2.02 6 1 C7.65 1 9.3 1 11 1 C11 9.58 11 18.16 11 27 C9.02 27 7.04 27 5 27 C5 26.01 5 25.02 5 24 C3.989375 24.66 2.97875 25.32 1.9375 26 C-1.86452407 28.14630391 -4.59678637 28.64046744 -9 28 C-13.87506134 25.56246933 -16.27327454 23.18017638 -18 18 C-18.60722293 13.85739022 -19.00564352 9.88028367 -16.98046875 6.09375 C-12.03593896 -0.00101783 -7.46440087 -0.99525345 0 0 Z " fill="#3E4C87" transform="translate(526,94)"/>
<path d="M0 0 C2.5625 1.5 2.5625 1.5 4 3 C4.33 2.34 4.66 1.68 5 1 C6.98 1 8.96 1 11 1 C11 9.58 11 18.16 11 27 C9.02 27 7.04 27 5 27 C4.67 26.01 4.34 25.02 4 24 C3.62617188 24.48597656 3.25234375 24.97195312 2.8671875 25.47265625 C-0.39616796 28.14205371 -4.05988791 27.45817313 -8.109375 27.35546875 C-11.83714003 26.8970544 -13.59892163 25.88129404 -16 23 C-18.84875373 18.28270888 -18.76657369 13.35052947 -18 8 C-14.30338279 0.53312779 -7.65350202 -0.96897549 0 0 Z " fill="#3B4A85" transform="translate(248,94)"/>
<path d="M0 0 C4.43041256 2.13609177 7.16159481 4.40398702 9 9 C9.70241555 13.68277033 9.47489688 17.03194098 7.375 21.3125 C4.37222432 24.71037774 1.67399648 27.52402863 -2.953125 28.34765625 C-7.65018307 28.55382483 -11.01700604 27.62515511 -15 25 C-18.87517723 21.43902633 -19.69502419 18.21763475 -20.03125 13.140625 C-19.96545374 8.63358096 -18.48948646 6.53843511 -15.5 3.25 C-10.80339756 -0.97694219 -6.10632986 -0.6209827 0 0 Z " fill="#3D4B86" transform="translate(185,94)"/>
<path d="M0 0 C3.64733504 1.67240871 5.91888562 3.55837871 8 7 C9.21548814 12.65466221 8.76889615 17.31434305 6.375 22.5625 C2.5588486 26.47907644 -0.96084363 28.14042835 -6.375 28.625 C-11.38325355 28.48918295 -13.97097588 26.09941612 -17.46875 22.7265625 C-20.70602488 19.0763699 -20.38855162 15.47331488 -20.3515625 10.76953125 C-19.7988962 6.41574898 -18.25456215 4.88472554 -15 2 C-10.25168759 -0.8771554 -5.38054998 -0.92512895 0 0 Z " fill="#3A4883" transform="translate(332,94)"/>
<path d="M0 0 C8.91 0 17.82 0 27 0 C27 1.98 27 3.96 27 6 C20.07 6 13.14 6 6 6 C6 10.95 6 15.9 6 21 C12.27 21 18.54 21 25 21 C25 22.98 25 24.96 25 27 C18.73 27 12.46 27 6 27 C6 33.27 6 39.54 6 46 C4.02 46 2.04 46 0 46 C0 30.82 0 15.64 0 0 Z " fill="#314282" transform="translate(405,75)"/>
<path d="M0 0 C4.246051 3.13333989 6.67437945 5.52704459 8.3671875 10.60546875 C0.52678799 13.38575226 -7.21593592 16.03710345 -15.6328125 15.60546875 C-16.2928125 14.28546875 -16.9528125 12.96546875 -17.6328125 11.60546875 C-22.0336828 15.42727717 -23.44086781 18.07917974 -24.6328125 23.60546875 C-25.2928125 23.60546875 -25.9528125 23.60546875 -26.6328125 23.60546875 C-29.45966762 12.4747267 -29.45966762 12.4747267 -28.6328125 7.60546875 C-22.36794574 -0.48744424 -9.35756492 -4.95645501 0 0 Z " fill="#DC4A33" transform="translate(85.6328125,61.39453125)"/>
<path d="M0 0 C3.06785957 0.74638444 4.20399575 2.09931142 6.18359375 4.53125 C6.63769531 7.18847656 6.63769531 7.18847656 6.57421875 10.171875 C6.55488281 11.77675781 6.55488281 11.77675781 6.53515625 13.4140625 C6.50164062 14.52523437 6.468125 15.63640625 6.43359375 16.78125 C6.41554688 17.90789062 6.3975 19.03453125 6.37890625 20.1953125 C6.33179597 22.97481896 6.26602736 25.7526034 6.18359375 28.53125 C4.20359375 28.53125 2.22359375 28.53125 0.18359375 28.53125 C0.1585376 27.90033447 0.13348145 27.26941895 0.10766602 26.61938477 C-0.00794762 23.77728175 -0.13082941 20.93553917 -0.25390625 18.09375 C-0.29322266 17.10052734 -0.33253906 16.10730469 -0.37304688 15.08398438 C-0.41494141 14.13974609 -0.45683594 13.19550781 -0.5 12.22265625 C-0.53665771 11.34810791 -0.57331543 10.47355957 -0.61108398 9.57250977 C-0.59821691 7.5385098 -0.59821691 7.5385098 -1.81640625 6.53125 C-5.29696499 6.70692358 -5.29696499 6.70692358 -8.81640625 7.53125 C-10.79206245 10.49473429 -11.08017484 11.21145373 -11.23046875 14.54296875 C-11.26914062 15.30029297 -11.3078125 16.05761719 -11.34765625 16.83789062 C-11.37859375 17.62357422 -11.40953125 18.40925781 -11.44140625 19.21875 C-11.48007812 20.01603516 -11.51875 20.81332031 -11.55859375 21.63476562 C-11.65273119 23.59988475 -11.73565257 25.5655354 -11.81640625 27.53125 C-14.12640625 27.53125 -16.43640625 27.53125 -18.81640625 27.53125 C-18.81640625 18.95125 -18.81640625 10.37125 -18.81640625 1.53125 C-16.83640625 1.53125 -14.85640625 1.53125 -12.81640625 1.53125 C-12.48640625 2.52125 -12.15640625 3.51125 -11.81640625 4.53125 C-11.17703125 3.87125 -10.53765625 3.21125 -9.87890625 2.53125 C-6.28116052 0.18170177 -4.17935641 0.05794602 0 0 Z " fill="#324081" transform="translate(366.81640625,93.46875)"/>
<path d="M0 0 C3.06077818 0.7446616 4.20258932 2.11192944 6.18359375 4.53125 C6.63769531 7.09667969 6.63769531 7.09667969 6.57421875 9.953125 C6.55488281 11.49033203 6.55488281 11.49033203 6.53515625 13.05859375 C6.50164062 14.12207031 6.468125 15.18554688 6.43359375 16.28125 C6.41554687 17.36019531 6.3975 18.43914062 6.37890625 19.55078125 C6.3318079 22.21183788 6.26604975 24.87109254 6.18359375 27.53125 C4.20359375 27.53125 2.22359375 27.53125 0.18359375 27.53125 C0.1585376 26.93062744 0.13348145 26.33000488 0.10766602 25.71118164 C-0.00795905 23.00513563 -0.13083561 20.29946717 -0.25390625 17.59375 C-0.29322266 16.64822266 -0.33253906 15.70269531 -0.37304688 14.72851562 C-0.41494141 13.82939453 -0.45683594 12.93027344 -0.5 12.00390625 C-0.53665771 11.17125244 -0.57331543 10.33859863 -0.61108398 9.48071289 C-0.61007728 7.52786142 -0.61007728 7.52786142 -1.81640625 6.53125 C-6.84140319 6.81594203 -6.84140319 6.81594203 -10.81640625 9.53125 C-11.18471706 11.46382855 -11.18471706 11.46382855 -11.23046875 13.6640625 C-11.26914063 14.46972656 -11.3078125 15.27539062 -11.34765625 16.10546875 C-11.37859375 16.94722656 -11.40953125 17.78898437 -11.44140625 18.65625 C-11.48007813 19.50574219 -11.51875 20.35523437 -11.55859375 21.23046875 C-11.65297119 23.33036684 -11.73578211 25.43077891 -11.81640625 27.53125 C-14.12640625 27.53125 -16.43640625 27.53125 -18.81640625 27.53125 C-18.81640625 18.95125 -18.81640625 10.37125 -18.81640625 1.53125 C-16.83640625 1.53125 -14.85640625 1.53125 -12.81640625 1.53125 C-12.48640625 2.52125 -12.15640625 3.51125 -11.81640625 4.53125 C-11.17703125 3.87125 -10.53765625 3.21125 -9.87890625 2.53125 C-6.28116052 0.18170177 -4.17935641 0.05794602 0 0 Z " fill="#424F84" transform="translate(150.81640625,93.46875)"/>
<path d="M0 0 C3.42032719 0.88099337 4.75610266 1.78421565 7.0625 4.53125 C7.69047557 8.46131112 7.53127124 12.31436458 7.375 16.28125 C7.35244141 17.36019531 7.32988281 18.43914062 7.30664062 19.55078125 C7.2477565 22.2123435 7.16557001 24.87109228 7.0625 27.53125 C5.0825 27.53125 3.1025 27.53125 1.0625 27.53125 C1.03744385 26.93062744 1.0123877 26.33000488 0.98657227 25.71118164 C0.8709472 23.00513563 0.74807064 20.29946717 0.625 17.59375 C0.58568359 16.64822266 0.54636719 15.70269531 0.50585938 14.72851562 C0.46396484 13.82939453 0.42207031 12.93027344 0.37890625 12.00390625 C0.34224854 11.17125244 0.30559082 10.33859863 0.26782227 9.48071289 C0.26882897 7.52786142 0.26882897 7.52786142 -0.9375 6.53125 C-4.38642109 6.54717762 -4.38642109 6.54717762 -7.9375 7.53125 C-11.15869111 11.48486972 -11.46012542 15.42106607 -11.625 20.34375 C-11.65916016 21.03662109 -11.69332031 21.72949219 -11.72851562 22.44335938 C-11.81036344 24.13877849 -11.87562365 25.83498458 -11.9375 27.53125 C-13.5875 27.53125 -15.2375 27.53125 -16.9375 27.53125 C-16.9375 18.95125 -16.9375 10.37125 -16.9375 1.53125 C-15.2875 1.53125 -13.6375 1.53125 -11.9375 1.53125 C-11.6075 2.52125 -11.2775 3.51125 -10.9375 4.53125 C-10.2775 3.87125 -9.6175 3.21125 -8.9375 2.53125 C-5.58289198 0.29484465 -3.89107417 0.06275926 0 0 Z " fill="#43508A" transform="translate(114.9375,93.46875)"/>
<path d="M0 0 C5.61 0 11.22 0 17 0 C21 7 21 7 21.25 9.75 C19.58601085 12.74518047 17.51805376 13.49321791 14.3203125 14.49609375 C9.01316574 15.64865592 4.62530369 15.5804656 -0.5 13.75 C-3 12 -3 12 -3.77734375 10.15625 C-4.18361411 6.22184232 -1.85722122 3.37676586 0 0 Z " fill="#171717" transform="translate(490,74)"/>
<path d="M0 0 C3.84146406 0.01833634 5.61177269 0.04495583 8.4765625 2.671875 C11.0647354 6.71972835 12.29573869 9.6650598 12.375 14.5 C11.34825891 17.58022327 10.16578057 20.02844527 8.3125 22.6875 C5.47668468 22.74421631 3.88611009 22.74479473 1.3125 21.6875 C-3.01810527 16.94631816 -6.50181501 10.90603974 -6.875 4.4375 C-6.55167177 -0.30464744 -4.34693336 0.32615367 0 0 Z " fill="#0B0B0B" transform="translate(475.6875,56.3125)"/>
<path d="M0 0 C1.98 0 3.96 0 6 0 C6 16.17 6 32.34 6 49 C4.02 49 2.04 49 0 49 C0 32.83 0 16.66 0 0 Z " fill="#3C4B85" transform="translate(547,72)"/>
<path d="M0 0 C0.495 0.495 0.99 0.99 1.5 1.5 C1.17 2.82 0.84 4.14 0.5 5.5 C-0.51320313 5.35691406 -0.51320313 5.35691406 -1.546875 5.2109375 C-2.43890625 5.10007812 -3.3309375 4.98921875 -4.25 4.875 C-5.13171875 4.75898437 -6.0134375 4.64296875 -6.921875 4.5234375 C-9.76349367 4.4976046 -11.14837549 4.94284323 -13.5 6.5 C-15.06935594 9.63871188 -14.85201103 12.03855822 -14.5 15.5 C-12.52033737 18.56307631 -12.52033737 18.56307631 -9.5 20.5 C-6.45788569 20.9167552 -6.45788569 20.9167552 -3.5 20.5 C-2.18 20.5 -0.86 20.5 0.5 20.5 C0.5 21.82 0.5 23.14 0.5 24.5 C-3.56670467 27.21113645 -6.72651396 27.1343503 -11.5 26.5 C-15.43531018 25.17315212 -17.98580339 23.21324045 -20.4375 19.8125 C-21.80784704 15.54024159 -22.45359019 11.92958023 -21.5 7.5 C-19.39079886 3.78780599 -16.76078107 1.26310433 -13.125 -0.9375 C-8.51578387 -1.92518917 -4.20189985 -2.52113991 0 0 Z " fill="#3F4C84" transform="translate(288.5,95.5)"/>
<path d="M0 0 C3.0625 1.5 3.0625 1.5 5 3 C4.67 4.32 4.34 5.64 4 7 C3.33613281 6.88140625 2.67226563 6.7628125 1.98828125 6.640625 C-3.72432835 5.78555627 -3.72432835 5.78555627 -9.125 7.5 C-11.25621612 9.95341525 -11.25621612 9.95341525 -11.625 13.4375 C-10.84009531 17.91145674 -9.66900829 19.36788535 -6 22 C-2.95788569 22.4167552 -2.95788569 22.4167552 0 22 C1.32 22 2.64 22 4 22 C4 23.32 4 24.64 4 26 C0.33569986 28.34515209 -2.72175983 28.36881381 -7 28 C-12.33739473 26.01155883 -15.45333824 23.09332352 -18 18 C-18.50921186 11.88945765 -18.08852244 8.86202669 -14 4 C-9.83551651 -0.52143921 -5.85305523 -0.92082424 0 0 Z " fill="#394985" transform="translate(497,94)"/>
<path d="M0 0 C2.28125 1.0234375 2.28125 1.0234375 4 2 C3.67 3.32 3.34 4.64 3 6 C0.03 5.67 -2.94 5.34 -6 5 C-6.05167527 7.42267086 -6.05167527 7.42267086 -5 10 C-1.6265242 11.68390585 -1.6265242 11.68390585 2 13 C3.9375 14.3125 3.9375 14.3125 5 16 C5.54174962 19.56006893 5.18572886 21.57282363 3.75 24.875 C-0.15340661 27.89126874 -3.41065291 27.47221125 -8.22265625 27.37109375 C-11 27 -11 27 -14 25 C-13.67 23.68 -13.34 22.36 -13 21 C-12.484375 21.165 -11.96875 21.33 -11.4375 21.5 C-8.26636124 22.15049 -5.22781666 22.0620734 -2 22 C-2 20.68 -2 19.36 -2 18 C-2.71027344 17.65066406 -3.42054688 17.30132812 -4.15234375 16.94140625 C-5.07144531 16.48636719 -5.99054688 16.03132813 -6.9375 15.5625 C-7.85402344 15.11003906 -8.77054687 14.65757813 -9.71484375 14.19140625 C-12 13 -12 13 -13 12 C-13.57392389 4.99812851 -13.57392389 4.99812851 -11.5625 1.5 C-7.81269867 -0.69500566 -4.24945025 -0.64340268 0 0 Z " fill="#3F4D86" transform="translate(468,94)"/>
<path d="M0 0 C2.31 0 4.62 0 7 0 C9.64 4.95 12.28 9.9 15 15 C15.78375 13.081875 16.5675 11.16375 17.375 9.1875 C18.73880258 5.84977264 19.99615009 3.00577487 22 0 C25.125 -0.1875 25.125 -0.1875 28 0 C26.37317535 5.70323584 23.66802013 10.68013903 20.875 15.875 C20.40707031 16.75414063 19.93914062 17.63328125 19.45703125 18.5390625 C18.3087907 20.69494271 17.15636097 22.84846777 16 25 C15.01 25 14.02 25 13 25 C11.02055654 21.20847777 9.04149209 17.41675784 7.0625 13.625 C6.49853516 12.54476562 5.93457031 11.46453125 5.35351562 10.3515625 C4.81533203 9.3203125 4.27714844 8.2890625 3.72265625 7.2265625 C3.22515869 6.27346191 2.72766113 5.32036133 2.21508789 4.33837891 C1.46640265 2.89756974 0.72614884 1.45229767 0 0 Z " fill="#3C4B87" transform="translate(198,95)"/>
<path d="M0 0 C2.9375 1.4375 2.9375 1.4375 5 4 C5.89919689 8.29879217 5.78222333 11.74844267 3.4375 15.5 C0.15734501 17.51855692 -2.1477443 18 -6 18 C-8.80189446 16.23358828 -10.51524911 14.96950178 -12 12 C-12.49055907 7.66672826 -12.47744439 5.67999656 -9.9375 2.0625 C-6.2404927 -0.53327109 -4.43355658 -0.71253588 0 0 Z " fill="#F5F8FB" transform="translate(248,99)"/>
<path d="M0 0 C2.9375 1.4375 2.9375 1.4375 5 4 C5.89919689 8.29879217 5.78222333 11.74844267 3.4375 15.5 C0.15734501 17.51855692 -2.1477443 18 -6 18 C-8.875 16.625 -8.875 16.625 -11 14 C-12.03188689 10.92153743 -12.3792449 8.22932776 -12 5 C-8.74332998 0.01322403 -5.80748975 -0.93334657 0 0 Z " fill="#F5F8FC" transform="translate(526,99)"/>
<path d="M0 0 C2.92539902 1.99176104 4.58729794 3.44924075 5.515625 6.9375 C5.87181493 11.21177914 5.26664901 12.68132191 2.4375 16.0625 C-1 18 -1 18 -4.625 18.125 C-8.6568506 16.7810498 -9.94541925 15.69824535 -12 12 C-12.67454401 7.37455536 -11.76861776 4.72698544 -9 1 C-5.86128812 -0.56935594 -3.46144178 -0.35201103 0 0 Z " fill="#F2F5FA" transform="translate(183,99)"/>
<path d="M0 0 C3.5 0.6875 3.5 0.6875 6.5 3.25 C8.5 6.6875 8.5 6.6875 8.625 10.25 C7.28253065 14.35198969 5.97621856 16.13827306 2.5 18.6875 C-0.5625 19.25 -0.5625 19.25 -3.5 18.6875 C-7.02051809 15.83302587 -8.36424451 13.88667351 -8.875 9.375 C-8.5 5.6875 -8.5 5.6875 -6.4375 2.75 C-3.5 0.6875 -3.5 0.6875 0 0 Z " fill="#F3F6FA" transform="translate(326.5,98.3125)"/>
<path d="M0 0 C8.91 0 17.82 0 27 0 C27 0.33 27 0.66 27 1 C18.42 1.33 9.84 1.66 1 2 C1 15.86 1 29.72 1 44 C2.32 44 3.64 44 5 44 C5 38.39 5 32.78 5 27 C4.01 27 3.02 27 2 27 C2 25.02 2 23.04 2 21 C4.97870377 20.00709874 6.59182885 19.94475452 9.66796875 20.12109375 C11.00698242 20.19360352 11.00698242 20.19360352 12.37304688 20.26757812 C13.30181641 20.32365234 14.23058594 20.37972656 15.1875 20.4375 C16.12787109 20.48970703 17.06824219 20.54191406 18.03710938 20.59570312 C20.35841501 20.72531918 22.67928409 20.86028181 25 21 C25 22.98 25 24.96 25 27 C18.73 27 12.46 27 6 27 C6 33.27 6 39.54 6 46 C4.02 46 2.04 46 0 46 C0 30.82 0 15.64 0 0 Z " fill="#4C5682" transform="translate(405,75)"/>
<path d="M0 0 C1.98 0 3.96 0 6 0 C6 12.54 6 25.08 6 38 C4.02 38 2.04 38 0 38 C0 25.46 0 12.92 0 0 Z " fill="#394886" transform="translate(80,83)"/>
<path d="M0 0 C1.98 0 3.96 0 6 0 C7.64079435 3.5755877 8.2170145 6.16266359 7.9765625 10.08203125 C7.925 11.01337891 7.8734375 11.94472656 7.8203125 12.90429688 C7.75585938 13.86400391 7.69140625 14.82371094 7.625 15.8125 C7.56828125 16.79154297 7.5115625 17.77058594 7.453125 18.77929688 C7.31218662 21.18699413 7.16083172 23.59356337 7 26 C4.69 26 2.38 26 0 26 C0 17.42 0 8.84 0 0 Z " fill="#4D5A94" transform="translate(132,95)"/>
<path d="M0 0 C3.125 0.25 3.125 0.25 4.80200195 1.41918945 C6.63344864 3.95360884 6.46726732 5.68715864 6.41796875 8.79296875 C6.40830078 9.86611328 6.39863281 10.93925781 6.38867188 12.04492188 C6.36353516 13.16447266 6.33839844 14.28402344 6.3125 15.4375 C6.29896484 16.56865234 6.28542969 17.69980469 6.27148438 18.86523438 C6.23609958 21.66063317 6.18672948 24.45507892 6.125 27.25 C4.145 27.25 2.165 27.25 0.125 27.25 C0.11041748 26.64003174 0.09583496 26.03006348 0.08081055 25.40161133 C0.00605225 22.62128936 -0.09051482 19.84213176 -0.1875 17.0625 C-0.21005859 16.10279297 -0.23261719 15.14308594 -0.25585938 14.15429688 C-0.51569475 7.23046314 -0.51569475 7.23046314 -3.875 1.25 C-2.875 0.25 -2.875 0.25 0 0 Z " fill="#304184" transform="translate(366.875,94.75)"/>
<path d="M0 0 C3.96 0 7.92 0 12 0 C12 13.2 12 26.4 12 40 C9.53894455 36.30841682 9.74424207 33.53376446 9.8046875 29.26953125 C9.8075174 28.51911057 9.81034729 27.76868988 9.81326294 26.99552917 C9.82444938 24.60102325 9.84955072 22.20689269 9.875 19.8125 C9.88503181 18.18815645 9.89415731 16.56380703 9.90234375 14.93945312 C9.92438363 10.959491 9.9589026 6.97980912 10 3 C7.36 2.67 4.72 2.34 2 2 C2.02094727 3.22630127 2.04189453 4.45260254 2.06347656 5.71606445 C2.13582066 10.26135604 2.18177934 14.80659667 2.21972656 19.35229492 C2.23985481 21.3204809 2.26716019 23.28860699 2.30175781 25.2565918 C2.35022311 28.0839718 2.37295618 30.91056201 2.390625 33.73828125 C2.41127014 34.61962234 2.43191528 35.50096344 2.45318604 36.40901184 C2.45544041 42.53231125 2.45544041 42.53231125 -0.02441406 45.07885742 C-1.0023291 45.534823 -1.0023291 45.534823 -2 46 C-3.32 45.34 -4.64 44.68 -6 44 C-6 43.67 -6 43.34 -6 43 C-4.02 43 -2.04 43 0 43 C0 28.81 0 14.62 0 0 Z " fill="#4C588C" transform="translate(451,172)"/>
<path d="M0 0 C1.98 0 3.96 0 6 0 C6 8.58 6 17.16 6 26 C4.02 26 2.04 26 0 26 C0 17.42 0 8.84 0 0 Z " fill="#394786" transform="translate(298,95)"/>
<path d="M0 0 C1.65 0 3.3 0 5 0 C5 8.25 5 16.5 5 25 C3.35 25 1.7 25 0 25 C-0.80209332 20.28770175 -1.03405733 15.8654419 -0.96875 11.08984375 C-1.0054326 8.63669495 -1.38751876 6.37336482 -2 4 C-1.34 4 -0.68 4 0 4 C0 2.68 0 1.36 0 0 Z " fill="#33417C" transform="translate(532,95)"/>
<path d="M0 0 C1.65 0 3.3 0 5 0 C5.96541545 3.18554592 6.05239684 5.88752707 5.87890625 9.203125 C5.83056641 10.1828125 5.78222656 11.1625 5.73242188 12.171875 C5.67634766 13.18765625 5.62027344 14.2034375 5.5625 15.25 C5.51029297 16.28125 5.45808594 17.3125 5.40429688 18.375 C5.27484366 20.91699039 5.13988672 23.45856593 5 26 C3.35 26 1.7 26 0 26 C0 17.42 0 8.84 0 0 Z " fill="#2F4185" transform="translate(98,95)"/>
<path d="M0 0 C1.65 0 3.3 0 5 0 C5 8.58 5 17.16 5 26 C3.35 26 1.7 26 0 26 C0 17.42 0 8.84 0 0 Z " fill="#334180" transform="translate(440,95)"/>
<path d="M0 0 C0.96164062 -0.00515625 1.92328125 -0.0103125 2.9140625 -0.015625 C5.375 0.25 5.375 0.25 7.375 2.25 C6.715 2.25 6.055 2.25 5.375 2.25 C5.705 4.23 6.035 6.21 6.375 8.25 C5.385 7.59 4.395 6.93 3.375 6.25 C-0.47265451 5.83025587 -2.72131706 5.65547175 -6 7.8125 C-8.0773486 10.9285229 -8.34074109 13.55463414 -8.625 17.25 C-8.955 17.25 -9.285 17.25 -9.625 17.25 C-9.625 14.28 -9.625 11.31 -9.625 8.25 C-12.82579729 11.41491913 -12.82579729 11.41491913 -13.3125 15.4375 C-13.415625 16.695625 -13.51875 17.95375 -13.625 19.25 C-13.955 19.25 -14.285 19.25 -14.625 19.25 C-15.48560251 8.5020309 -15.48560251 8.5020309 -12.375 4.6875 C-8.21821192 1.0030742 -5.56739685 -0.03001292 0 0 Z " fill="#4B568B" transform="translate(326.625,93.75)"/>
<path d="M0 0 C0.67224609 -0.00773437 1.34449219 -0.01546875 2.03710938 -0.0234375 C5.72172836 -0.00880148 7.29365148 0.15410098 10.4375 2.25 C9.4375 5.25 9.4375 5.25 7.125 6.4375 C1.92590783 7.58306268 -3.2605056 7.77025342 -8.5625 7.25 C-9.5525 6.59 -10.5425 5.93 -11.5625 5.25 C-11.5625 4.26 -11.5625 3.27 -11.5625 2.25 C-7.80395075 -0.1723898 -4.38787626 -0.0171569 0 0 Z " fill="#E9E9EA" transform="translate(499.5625,79.75)"/>
<path d="M0 0 C2.5 2.25 2.5 2.25 5 5 C5 6.32 5 7.64 5 9 C0.64409432 10.62849969 -3.23934612 11.34118446 -7.875 11.625 C-9.60363281 11.73714844 -9.60363281 11.73714844 -11.3671875 11.8515625 C-12.23601562 11.90054688 -13.10484375 11.94953125 -14 12 C-14 10.02 -14 8.04 -14 6 C-9.82262526 4.40861915 -6.46839215 3.78721942 -2 4 C-2 3.34 -2 2.68 -2 2 C-1.34 2 -0.68 2 0 2 C0 1.34 0 0.68 0 0 Z " fill="#E0E0E2" transform="translate(94,71)"/>
<path d="M0 0 C5.7637936 3.0242733 8.37409125 7.14696433 11 13 C11.44239175 15.58137864 11.34207552 17.377421 11 20 C7.704854 19.75591511 6.80053202 18.79566695 4.4375 16.375 C0.89899864 11.8208177 -1.69328198 6.89289685 -1 1 C-0.67 0.67 -0.34 0.34 0 0 Z " fill="#DFDFDF" transform="translate(472,58)"/>
<path d="M0 0 C0.66 0 1.32 0 2 0 C2 2.97 2 5.94 2 9 C2.66 9 3.32 9 4 9 C4.33 10.32 4.66 11.64 5 13 C8.3 13.66 11.6 14.32 15 15 C14.67 16.32 14.34 17.64 14 19 C9.02642596 19.60900907 5.10345657 19.66409946 0.9375 16.625 C-1.93123632 13.8425914 -2.46968375 11.7745935 -2.5625 7.8125 C-2.39158541 4.22329366 -2.06273555 3.09410332 0 0 Z " fill="#3D4B82" transform="translate(315,102)"/>
<path d="M0 0 C3.5411021 -0.08047959 6.59409652 0.02688472 10 1 C10.66 1 11.32 1 12 1 C13.38232443 2.62626404 14.71937515 4.2925002 16 6 C12.68106312 9.93355482 12.68106312 9.93355482 9.4375 10.25 C8.633125 10.1675 7.82875 10.085 7 10 C6.01 10 5.02 10 4 10 C1.9375 9.875 1.9375 9.875 0 9 C-1.25 5.9375 -1.25 5.9375 -2 3 C-1.34 2.67 -0.68 2.34 0 2 C0 1.34 0 0.68 0 0 Z " fill="#101010" transform="translate(503,54)"/>
<path d="M0 0 C3.01906749 2.93027139 3.95271042 4.44198297 4.3125 8.6875 C4 12 4 12 3 14 C3.66 14.33 4.32 14.66 5 15 C3 16 3 16 0 16 C-0.66 16.33 -1.32 16.66 -2 17 C-4 15 -4 15 -5 12 C-5.66 11.34 -6.32 10.68 -7 10 C-6.01 9.67 -5.02 9.34 -4 9 C-4.66 7.35 -5.32 5.7 -6 4 C-2.25 0 -2.25 0 0 0 Z " fill="#1E1E1E" transform="translate(498,38)"/>
<path d="M0 0 C0.33 0 0.66 0 1 0 C0.938125 1.093125 0.87625 2.18625 0.8125 3.3125 C1.01956607 7.38479942 1.2453274 7.47488345 4 10 C4.3125 12.5625 4.3125 12.5625 4 15 C2 17 2 17 -1.5 17.3125 C-2.655 17.209375 -3.81 17.10625 -5 17 C-7 14 -7 14 -6.75 11.1875 C-6.00997553 8.04239599 -5.08628408 5.04159543 -4 2 C-3.67 2 -3.34 2 -3 2 C-3 3.65 -3 5.3 -3 7 C-2.34 7 -1.68 7 -1 7 C-0.67 4.69 -0.34 2.38 0 0 Z " fill="#E8E2DF" transform="translate(62,78)"/>
<path d="M0 0 C0.33 0 0.66 0 1 0 C1 5.28 1 10.56 1 16 C2.65 16 4.3 16 6 16 C6 16.33 6 16.66 6 17 C4.02 17 2.04 17 0 17 C0 16.01 0 15.02 0 14 C-1.010625 14.66 -2.02125 15.32 -3.0625 16 C-6.86452407 18.14630391 -9.59678637 18.64046744 -14 18 C-19.53846154 14.92307692 -19.53846154 14.92307692 -21 12 C-17.85262818 12.69941596 -14.97411124 13.76078698 -12 15 C-12 14.34 -12 13.68 -12 13 C-10.741875 12.731875 -9.48375 12.46375 -8.1875 12.1875 C-5.89855286 11.59302079 -4.11237458 11.06524976 -2.0625 9.875 C-0.29712267 6.75962824 -0.29042933 3.54323784 0 0 Z " fill="#4C588C" transform="translate(531,104)"/>
<path d="M0 0 C0.86625 0.825 1.7325 1.65 2.625 2.5 C5.07678107 4.5527884 5.8082117 4.98082117 9.125 5.3125 C10.07375 5.209375 11.0225 5.10625 12 5 C13.32 5 14.64 5 16 5 C16 6.32 16 7.64 16 9 C11.95688404 11.69541064 8.75134778 11.6753982 4 11 C1.38495462 9.90444365 -0.6377905 8.60831285 -3 7 C-2.01 6.67 -1.02 6.34 0 6 C0 4.02 0 2.04 0 0 Z " fill="#536098" transform="translate(273,111)"/>
<path d="M0 0 C1.4025 -0.020625 2.805 -0.04125 4.25 -0.0625 C5.43335938 -0.07990234 5.43335938 -0.07990234 6.640625 -0.09765625 C8.90691002 -0.00385306 10.8288895 0.36758937 13 1 C13 1.66 13 2.32 13 3 C13.99 3 14.98 3 16 3 C16 4.32 16 5.64 16 7 C15.01 6.67 14.02 6.34 13 6 C12.21625 6.825 11.4325 7.65 10.625 8.5 C8 11 8 11 6 11 C4.02 7.37 2.04 3.74 0 0 Z " fill="#0C0C0C" transform="translate(484,55)"/>
<path d="M0 0 C2.375 2.3125 2.375 2.3125 4 5 C4 5.99 4 6.98 4 8 C-0.95 8 -5.9 8 -11 8 C-8.47199704 1.67999259 -7.2215589 -1.17903002 0 0 Z " fill="#161616" transform="translate(502,63)"/>
<path d="M0 0 C0 0.66 0 1.32 0 2 C-0.66 2 -1.32 2 -2 2 C-2.33 3.32 -2.66 4.64 -3 6 C-2.01 5.67 -1.02 5.34 0 5 C0 5.66 0 6.32 0 7 C3.465 6.505 3.465 6.505 7 6 C5.55114689 7.44885311 4.04202041 8.83823214 2.5 10.1875 C-0.4885034 13.54956633 -1.06707227 15.67460779 -2 20 C-2.66 20 -3.32 20 -4 20 C-5.35654576 14.65860106 -6.65172212 9.53963804 -6 4 C-2.92307692 0 -2.92307692 0 0 0 Z " fill="#D65A48" transform="translate(63,65)"/>
<path d="M0 0 C5.94 0 11.88 0 18 0 C18 1.65 18 3.3 18 5 C12.06 5 6.12 5 0 5 C0 3.35 0 1.7 0 0 Z " fill="#303F80" transform="translate(411,96)"/>
<path d="M0 0 C4.04790179 0.02582393 6.47952997 0.7180232 9.75 3.25 C9.42 4.57 9.09 5.89 8.75 7.25 C7.75419922 7.08951172 7.75419922 7.08951172 6.73828125 6.92578125 C1.04057602 6.08628292 1.04057602 6.08628292 -4.375 7.6875 C-4.99375 8.203125 -5.6125 8.71875 -6.25 9.25 C-6.25 7.93 -6.25 6.61 -6.25 5.25 C-5.59 5.25 -4.93 5.25 -4.25 5.25 C-4.5284375 4.2909375 -4.5284375 4.2909375 -4.8125 3.3125 C-5.0290625 2.2915625 -5.0290625 2.2915625 -5.25 1.25 C-3.68966377 -0.31033623 -2.16052864 0.04292441 0 0 Z " fill="#47538A" transform="translate(492.25,93.75)"/>
<path d="M0 0 C0.76183594 0.00386719 1.52367187 0.00773437 2.30859375 0.01171875 C4.75779127 0.3385614 6.42950917 1.09295399 8.5625 2.3125 C8.2325 3.6325 7.9025 4.9525 7.5625 6.3125 C4.5925 5.9825 1.6225 5.6525 -1.4375 5.3125 C-1.16715366 7.74967258 -1.16715366 7.74967258 -0.4375 10.3125 C0.5525 10.9725 1.5425 11.6325 2.5625 12.3125 C0.5825 12.3125 -1.3975 12.3125 -3.4375 12.3125 C-3.7675 9.6725 -4.0975 7.0325 -4.4375 4.3125 C-5.4275 3.9825 -6.4175 3.6525 -7.4375 3.3125 C-5.08278413 0.46126257 -3.67419868 -0.08054736 0 0 Z " fill="#4A588F" transform="translate(463.4375,93.6875)"/>
<path d="M0 0 C0.33 0.99 0.66 1.98 1 3 C0.67 3.66 0.34 4.32 0 5 C0.66 5 1.32 5 2 5 C2 4.34 2 3.68 2 3 C2.66 3 3.32 3 4 3 C3.08486681 5.28783297 2.34515354 6.73449728 0.375 8.25 C-4.0839489 9.65808913 -8.5594733 9.48017557 -13 8 C-12.28125 6.0703125 -12.28125 6.0703125 -11 4 C-8.90625 3.2421875 -8.90625 3.2421875 -6.5 2.875 C-2.82788012 2.35240636 -2.82788012 2.35240636 0 0 Z " fill="#43528C" transform="translate(186,113)"/>
<path d="M0 0 C7.92 0 15.84 0 24 0 C24 1.32 24 2.64 24 4 C19.05 4 14.1 4 9 4 C8.67 3.34 8.34 2.68 8 2 C6.10466658 1.53476937 6.10466658 1.53476937 3.9375 1.375 C2.638125 1.25125 1.33875 1.1275 0 1 C0 0.67 0 0.34 0 0 Z " fill="#314081" transform="translate(408,76)"/>
<path d="M0 0 C2.5 1.5 2.5 1.5 4 3 C3.67 4.32 3.34 5.64 3 7 C2.30132812 6.9278125 1.60265625 6.855625 0.8828125 6.78125 C-0.02726562 6.6884375 -0.93734375 6.595625 -1.875 6.5 C-2.77992188 6.4071875 -3.68484375 6.314375 -4.6171875 6.21875 C-6.93313211 5.96952705 -6.93313211 5.96952705 -9 6 C-8.67 4.68 -8.34 3.36 -8 2 C-8.99 1.67 -9.98 1.34 -11 1 C-7.30624122 -0.23125293 -3.84512599 -0.46420032 0 0 Z " fill="#3D4B83" transform="translate(286,94)"/>
<path d="M0 0 C0.33 0.66 0.66 1.32 1 2 C1.66 2 2.32 2 3 2 C4.625 4 4.625 4 6 6 C5.01 6 4.02 6 3 6 C3 6.66 3 7.32 3 8 C3.66 8.33 4.32 8.66 5 9 C5.625 11.5625 5.625 11.5625 6 14 C5.34 13.67 4.68 13.34 4 13 C2.62657169 12.9310528 1.24997898 12.91532292 -0.125 12.9375 C-1.40375 12.958125 -2.6825 12.97875 -4 13 C-3.34 11.35 -2.68 9.7 -2 8 C-0.68 8.99 0.64 9.98 2 11 C2 9.68 2 8.36 2 7 C1.01 7 0.02 7 -1 7 C-1 6.34 -1 5.68 -1 5 C-4.63 4.67 -8.26 4.34 -12 4 C-12 3.67 -12 3.34 -12 3 C-4.375 1.875 -4.375 1.875 -1 3 C-0.67 2.01 -0.34 1.02 0 0 Z " fill="#A4A4A4" transform="translate(498,51)"/>
<path d="M0 0 C0.66 0.33 1.32 0.66 2 1 C2 6.28 2 11.56 2 17 C0.68 17 -0.64 17 -2 17 C-2 11.72 -2 6.44 -2 1 C-1.34 0.67 -0.68 0.34 0 0 Z " fill="#2F4083" transform="translate(119,103)"/>
<path d="M0 0 C1.97558594 1.15356445 1.97558594 1.15356445 4 3 C4.45410156 5.54370117 4.45410156 5.54370117 4.390625 8.54296875 C4.37773437 9.61611328 4.36484375 10.68925781 4.3515625 11.79492188 C4.31804687 12.91447266 4.28453125 14.03402344 4.25 15.1875 C4.23195313 16.31865234 4.21390625 17.44980469 4.1953125 18.61523438 C4.14812652 21.41100376 4.08230595 24.20507972 4 27 C2.02 27 0.04 27 -2 27 C-2 20.4 -2 13.8 -2 7 C-1.67 7 -1.34 7 -1 7 C-0.67 12.94 -0.34 18.88 0 25 C0.99 25 1.98 25 3 25 C2.88519969 22.14509764 2.75847036 19.2915412 2.625 16.4375 C2.5940625 15.63763672 2.563125 14.83777344 2.53125 14.01367188 C2.28743436 9.03576917 1.56368612 4.73555351 0 0 Z " fill="#535D8B" transform="translate(369,95)"/>
<path d="M0 0 C1.32 0 2.64 0 4 0 C4.2358396 5.77807024 3.86783046 10.51324804 2 16 C-1.06091492 12.93908508 -1.54771796 9.23102551 -2 5 C-1.125 1.9375 -1.125 1.9375 0 0 Z " fill="#313F83" transform="translate(254,95)"/>
<path d="M0 0 C1.21236328 0.02707031 1.21236328 0.02707031 2.44921875 0.0546875 C3.37154297 0.08949219 3.37154297 0.08949219 4.3125 0.125 C4.3125 0.455 4.3125 0.785 4.3125 1.125 C2.6625 1.455 1.0125 1.785 -0.6875 2.125 C-0.6875 3.115 -0.6875 4.105 -0.6875 5.125 C-1.80125 5.57875 -2.915 6.0325 -4.0625 6.5 C-7.64949008 7.84965986 -7.64949008 7.84965986 -9.6875 10.125 C-11.0075 9.135 -12.3275 8.145 -13.6875 7.125 C-12.30173347 4.35346695 -10.34618859 3.64425062 -7.6875 2.125 C-4.48369983 -0.01086678 -3.66810033 -0.10632175 0 0 Z " fill="#414E87" transform="translate(364.6875,93.875)"/>
<path d="M0 0 C1.98 0 3.96 0 6 0 C4.45454854 5.47932789 1.84456788 10.11429181 -1 15 C-1.66 15 -2.32 15 -3 15 C-3 13.02 -3 11.04 -3 9 C-2.01 8.67 -1.02 8.34 0 8 C0 5.36 0 2.72 0 0 Z " fill="#344484" transform="translate(220,95)"/>
<path d="M0 0 C0.33 0 0.66 0 1 0 C1.06058594 1.15757813 1.12117188 2.31515625 1.18359375 3.5078125 C1.26805502 5.04688457 1.35270018 6.58594655 1.4375 8.125 C1.47681641 8.88554688 1.51613281 9.64609375 1.55664062 10.4296875 C1.79509002 14.68509203 2.20230237 18.80370826 3 23 C3.99 23.33 4.98 23.66 6 24 C6 19.71 6 15.42 6 11 C6.33 11 6.66 11 7 11 C7 15.95 7 20.9 7 26 C4.69 26 2.38 26 0 26 C0 17.42 0 8.84 0 0 Z " fill="#7F89B0" transform="translate(348,95)"/>
<path d="M0 0 C0.33 1.32 0.66 2.64 1 4 C2.32 4.33 3.64 4.66 5 5 C-1.43003026 11.78725416 -1.43003026 11.78725416 -6.359375 12.1953125 C-7.54273438 12.16050781 -7.54273438 12.16050781 -8.75 12.125 C-9.54921875 12.10695313 -10.3484375 12.08890625 -11.171875 12.0703125 C-11.77515625 12.04710938 -12.3784375 12.02390625 -13 12 C-13 11.67 -13 11.34 -13 11 C-10.36 11 -7.72 11 -5 11 C-5.0825 10.2575 -5.165 9.515 -5.25 8.75 C-4.92655478 5.19210255 -3.62196358 4.30414981 -1 2 C-0.67 1.34 -0.34 0.68 0 0 Z " fill="#3C4985" transform="translate(334,110)"/>
<path d="M0 0 C-0.61277612 2.96175123 -1.25372522 4.38058783 -3 7 C-6.72301503 7.47730962 -7.79191085 7.1387261 -11 5 C-11 4.01 -11 3.02 -11 2 C-7.36576791 -0.32590854 -4.22911669 -0.16265833 0 0 Z " fill="#CCCDCB" transform="translate(499,80)"/>
<path d="M0 0 C1.2065625 0.0309375 1.2065625 0.0309375 2.4375 0.0625 C1.7775 0.7225 1.1175 1.3825 0.4375 2.0625 C0.1075 2.0625 -0.2225 2.0625 -0.5625 2.0625 C-0.21543447 8.54105653 1.25378908 13.02118629 5.4375 18.0625 C8.05357721 20.05567643 8.05357721 20.05567643 10.4375 21.0625 C10.7675 20.0725 11.0975 19.0825 11.4375 18.0625 C11.7675 18.7225 12.0975 19.3825 12.4375 20.0625 C12.1075 20.7225 11.7775 21.3825 11.4375 22.0625 C8.60168468 22.11921631 7.01111009 22.11979473 4.4375 21.0625 C0.10689473 16.32131816 -3.37681501 10.28103974 -3.75 3.8125 C-3.49587035 0.08526513 -3.49587035 0.08526513 0 0 Z " fill="#2A2A2A" transform="translate(472.5625,56.9375)"/>
<path d="M0 0 C0.66 0.66 1.32 1.32 2 2 C1.67 2.99 1.34 3.98 1 5 C-4.61 5 -10.22 5 -16 5 C-16.33 5.99 -16.66 6.98 -17 8 C-16.125 3.125 -16.125 3.125 -15 2 C-12.46950598 1.92686433 -9.96695163 1.90752473 -7.4375 1.9375 C-6.72658203 1.94201172 -6.01566406 1.94652344 -5.28320312 1.95117188 C-3.52209987 1.96299136 -1.76103964 1.98092737 0 2 C0 1.34 0 0.68 0 0 Z " fill="#F9F9F9" transform="translate(506,69)"/>
<path d="M0 0 C0.66 0 1.32 0 2 0 C2.33 4.95 2.66 9.9 3 15 C0.525 14.01 0.525 14.01 -2 13 C-2.05416188 11.39620659 -2.09286638 9.79188594 -2.125 8.1875 C-2.14820313 7.29417969 -2.17140625 6.40085937 -2.1953125 5.48046875 C-2 3 -2 3 0 0 Z " fill="#314186" transform="translate(315,102)"/>
<path d="M0 0 C1.65 0 3.3 0 5 0 C5 1.32 5 2.64 5 4 C4.01 4 3.02 4 2 4 C1.67 10.27 1.34 16.54 1 23 C2.32 23 3.64 23 5 23 C5 23.99 5 24.98 5 26 C3.35 26 1.7 26 0 26 C0 17.42 0 8.84 0 0 Z " fill="#39457C" transform="translate(98,95)"/>
<path d="M0 0 C0.66 0 1.32 0 2 0 C3.2062252 3.61867559 3.10816918 6.92506251 3.0625 10.6875 C3.05798828 11.38939453 3.05347656 12.09128906 3.04882812 12.81445312 C3.03706927 14.54300538 3.01913454 16.27151365 3 18 C2.01 18.33 1.02 18.66 0 19 C0 12.73 0 6.46 0 0 Z " fill="#2E3F86" transform="translate(153,100)"/>
<path d="M0 0 C3.48331435 3.01887244 4.79157144 5.56909529 6 10 C7.32 9.34 8.64 8.68 10 8 C9.1875 10.4375 9.1875 10.4375 8 13 C7.01 13.33 6.02 13.66 5 14 C4.67 14.66 4.34 15.32 4 16 C3.81824219 15.40832031 3.63648438 14.81664063 3.44921875 14.20703125 C2.04332943 9.787492 0.62472819 5.87459875 -2 2 C-1.34 2 -0.68 2 0 2 C0 1.34 0 0.68 0 0 Z " fill="#E0E0E0" transform="translate(484,56)"/>
<path d="M0 0 C5.70939788 -0.45675183 8.55127459 0.37894444 13 4 C13.99 5.485 13.99 5.485 15 7 C13.68 6.67 12.36 6.34 11 6 C11 5.34 11 4.68 11 4 C6.55790643 3.89165625 2.38585329 4.29826347 -2 5 C-2 4.34 -2 3.68 -2 3 C-1.34 3 -0.68 3 0 3 C0 2.01 0 1.02 0 0 Z " fill="#394881" transform="translate(257,217)"/>
<path d="M0 0 C0.99 0.33 1.98 0.66 3 1 C3 2.65 3 4.3 3 6 C8.94 6 14.88 6 21 6 C21 4.35 21 2.7 21 1 C21.33 1 21.66 1 22 1 C22 2.98 22 4.96 22 7 C14.41 7 6.82 7 -1 7 C-1 1 -1 1 0 0 Z " fill="#5766A1" transform="translate(408,95)"/>
<path d="M0 0 C8.19256018 -0.4726477 8.19256018 -0.4726477 11.5625 1.5 C12.036875 1.995 12.51125 2.49 13 3 C13.66 2.34 14.32 1.68 15 1 C14.25 5.75 14.25 5.75 12 8 C11.01 7.34 10.02 6.68 9 6 C7.0103005 5.60986284 5.00980131 5.26797351 3 5 C3 4.34 3 3.68 3 3 C5.31 3.33 7.62 3.66 10 4 C10 3.34 10 2.68 10 2 C6.7 1.67 3.4 1.34 0 1 C0 0.67 0 0.34 0 0 Z " fill="#4E5B8F" transform="translate(239,94)"/>
<path d="M0 0 C3.1875 -0.3125 3.1875 -0.3125 6 0 C4.43977363 3.82964655 2.12444429 6.32190489 -1 9 C-2.32 9 -3.64 9 -5 9 C-4.35330586 7.65686601 -3.68096422 6.32608822 -3 5 C-2.5875 4.0925 -2.175 3.185 -1.75 2.25 C-1.1725 1.5075 -0.595 0.765 0 0 Z " fill="#515B8C" transform="translate(327,81)"/>
<path d="M0 0 C1.32 0.66 2.64 1.32 4 2 C3 5 3 5 1 6 C-0.54023996 6.06950541 -2.08334988 6.08452357 -3.625 6.0625 C-4.85089844 6.04896484 -4.85089844 6.04896484 -6.1015625 6.03515625 C-7.04128906 6.01775391 -7.04128906 6.01775391 -8 6 C-8 4.66666667 -8 3.33333333 -8 2 C-6.865625 1.855625 -5.73125 1.71125 -4.5625 1.5625 C-1.19222799 1.38828522 -1.19222799 1.38828522 0 0 Z " fill="#3C4982" transform="translate(286,115)"/>
<path d="M0 0 C0.66 0 1.32 0 2 0 C2 0.66 2 1.32 2 2 C2.66 2 3.32 2 4 2 C4 4.97 4 7.94 4 11 C2.35 11.33 0.7 11.66 -1 12 C-1.02687279 10.18757948 -1.04633715 8.37504767 -1.0625 6.5625 C-1.07410156 5.55316406 -1.08570313 4.54382813 -1.09765625 3.50390625 C-1 1 -1 1 0 0 Z " fill="#2F4085" transform="translate(336,102)"/>
<path d="M0 0 C-0.99 0.495 -0.99 0.495 -2 1 C-2 1.66 -2 2.32 -2 3 C-9.82316305 5.29370226 -16.84524526 6.433422 -25 6 C-24.67 4.68 -24.34 3.36 -24 2 C-24 2.99 -24 3.98 -24 5 C-21.58179317 4.54884201 -19.16567137 4.08938045 -16.75 3.625 C-16.06808594 3.49867187 -15.38617188 3.37234375 -14.68359375 3.2421875 C-9.4244517 2.22099487 -5.36200836 -0.29788935 0 0 Z " fill="#E9C2BA" transform="translate(94,72)"/>
<path d="M0 0 C1.32 0.66 2.64 1.32 4 2 C3 5 3 5 1.375 6.1875 C-1.80382728 7.27499354 -4.66661533 7.1282071 -8 7 C-8.33 6.34 -8.66 5.68 -9 5 C-8.071875 4.731875 -7.14375 4.46375 -6.1875 4.1875 C-3.23759634 3.08851629 -1.94384814 2.37581439 0 0 Z " fill="#4A578B" transform="translate(498,115)"/>
<path d="M0 0 C0.66 0.33 1.32 0.66 2 1 C2.625 3.5625 2.625 3.5625 3 6 C0.03 8.475 0.03 8.475 -3 11 C-4.125 4.375 -4.125 4.375 -3 1 C-2.01 0.67 -1.02 0.34 0 0 Z " fill="#3A4B8C" transform="translate(533,224)"/>
<path d="M0 0 C1.65 0 3.3 0 5 0 C5 4 5 4 3 7 C0.03 6.505 0.03 6.505 -3 6 C-2.67 4.68 -2.34 3.36 -2 2 C-1.34 2 -0.68 2 0 2 C0 1.34 0 0.68 0 0 Z " fill="#E3452F" transform="translate(63,65)"/>
<path d="M0 0 C1.67542976 0.28604898 3.34385343 0.61781233 5 1 C5.625 2.875 5.625 2.875 6 5 C5.34 5.66 4.68 6.32 4 7 C1.375 6.625 1.375 6.625 -1 6 C-1.042721 4.33388095 -1.04063832 2.66617115 -1 1 C-0.67 0.67 -0.34 0.34 0 0 Z " fill="#505B8D" transform="translate(299,82)"/>
<path d="M0 0 C1.79133978 -0.05391993 3.58313899 -0.09275571 5.375 -0.125 C6.37273437 -0.14820312 7.37046875 -0.17140625 8.3984375 -0.1953125 C11 0 11 0 13 2 C12.34 2 11.68 2 11 2 C11.33 3.98 11.66 5.96 12 8 C11.01 7.34 10.02 6.68 9 6 C6.94290404 5.75944532 6.94290404 5.75944532 4.8125 5.875 C3.554375 5.91625 2.29625 5.9575 1 6 C1 5.01 1 4.02 1 3 C2.134375 3.020625 3.26875 3.04125 4.4375 3.0625 C7.81575674 3.41577477 7.81575674 3.41577477 9 2 C6.03 1.67 3.06 1.34 0 1 C0 0.67 0 0.34 0 0 Z " fill="#4E5D90" transform="translate(321,94)"/>
<path d="M0 0 C4.43090471 1.20842856 6.98112756 2.51668565 10 6 C8.741875 6.04125 7.48375 6.0825 6.1875 6.125 C5.47980469 6.14820312 4.77210938 6.17140625 4.04296875 6.1953125 C2 6 2 6 -1 4 C-0.67 2.68 -0.34 1.36 0 0 Z " fill="#404C82" transform="translate(455,115)"/>
<path d="M0 0 C1.66611905 -0.042721 3.33382885 -0.04063832 5 0 C6 1 6 1 6.0625 3.5625 C6.041875 4.366875 6.02125 5.17125 6 6 C5.34 6 4.68 6 4 6 C4 6.66 4 7.32 4 8 C3.34 8 2.68 8 2 8 C0.23537317 4.91190305 0 3.76687864 0 0 Z " fill="#314183" transform="translate(467,109)"/>
<path d="M0 0 C1.32 0.33 2.64 0.66 4 1 C3.34 4.3 2.68 7.6 2 11 C1.01 10.67 0.02 10.34 -1 10 C-1 10.66 -1 11.32 -1 12 C-1.66 12 -2.32 12 -3 12 C-2.67 10.35 -2.34 8.7 -2 7 C-1.34 7 -0.68 7 0 7 C0 4.69 0 2.38 0 0 Z " fill="#304086" transform="translate(189,106)"/>
<path d="M0 0 C3.96 0 7.92 0 12 0 C11.01 1.485 11.01 1.485 10 3 C7.69 2.67 5.38 2.34 3 2 C3 2.66 3 3.32 3 4 C1.35 4.33 -0.3 4.66 -2 5 C-1.34 3.35 -0.68 1.7 0 0 Z " fill="#314282" transform="translate(319,95)"/>
<path d="M0 0 C2.125 0.375 2.125 0.375 4 1 C4.625 2.875 4.625 2.875 5 5 C4.34 5.66 3.68 6.32 3 7 C0.875 6.625 0.875 6.625 -1 6 C-1.625 4.125 -1.625 4.125 -2 2 C-1.34 1.34 -0.68 0.68 0 0 Z " fill="#465289" transform="translate(441,82)"/>
<path d="M0 0 C0.33 0 0.66 0 1 0 C1 1.98 1 3.96 1 6 C0.01 6.495 0.01 6.495 -1 7 C-1.65772428 10.02934491 -1.65772428 10.02934491 -2 13 C-1.34 13.33 -0.68 13.66 0 14 C-0.66 14.66 -1.32 15.32 -2 16 C-2 15.34 -2 14.68 -2 14 C-2.99 13.67 -3.98 13.34 -5 13 C-4.39254603 8.14036821 -2.27241033 4.2594482 0 0 Z " fill="#4E5C92" transform="translate(219,97)"/>
<path d="M0 0 C2.1640625 -0.29296875 2.1640625 -0.29296875 4.625 -0.1875 C5.44226563 -0.16042969 6.25953125 -0.13335937 7.1015625 -0.10546875 C8.04128906 -0.05326172 8.04128906 -0.05326172 9 0 C9.33 0.99 9.66 1.98 10 3 C9.67 3.66 9.34 4.32 9 5 C5.37 4.34 1.74 3.68 -2 3 C-1.34 2.01 -0.68 1.02 0 0 Z " fill="#3B4983" transform="translate(462,95)"/>
<path d="M0 0 C2.12046792 3.53411321 2.53199289 6.94393835 3 11 C2.01 11.495 2.01 11.495 1 12 C0.34 11.67 -0.32 11.34 -1 11 C-1.484375 9.00390625 -1.484375 9.00390625 -1.75 6.5625 C-1.84796875 5.75941406 -1.9459375 4.95632812 -2.046875 4.12890625 C-2 2 -2 2 0 0 Z " fill="#2E3F83" transform="translate(271,106)"/>
<path d="M0 0 C5.31027254 1.46032495 9.46330032 3.98320986 14 7 C11.45297384 8.27351308 10.5717055 7.80191925 7.875 7.0625 C7.15054687 6.86785156 6.42609375 6.67320312 5.6796875 6.47265625 C5.12539063 6.31667969 4.57109375 6.16070312 4 6 C4 5.34 4 4.68 4 4 C2.68 3.34 1.36 2.68 0 2 C0 1.34 0 0.68 0 0 Z " fill="#3F4B82" transform="translate(299,161)"/>
<path d="M0 0 C0.66 0.33 1.32 0.66 2 1 C2 2.98 2 4.96 2 7 C2.66 7 3.32 7 4 7 C4.33 8.32 4.66 9.64 5 11 C3.35 10.67 1.7 10.34 0 10 C0.33 7.69 0.66 5.38 1 3 C0.01 3.99 -0.98 4.98 -2 6 C-2.66 5.67 -3.32 5.34 -4 5 C-2.68 3.35 -1.36 1.7 0 0 Z " fill="#F1E2DE" transform="translate(67,72)"/>
<path d="M0 0 C0.33 0 0.66 0 1 0 C1 9.24 1 18.48 1 28 C-0.32 27.34 -1.64 26.68 -3 26 C-2.34 25.67 -1.68 25.34 -1 25 C-0.67 16.75 -0.34 8.5 0 0 Z " fill="#ECF3FE" transform="translate(432,183)"/>
<path d="M0 0 C0.33 0 0.66 0 1 0 C1 5.61 1 11.22 1 17 C-0.65 17 -2.3 17 -4 17 C-4 14.69 -4 12.38 -4 10 C-3.67 11.32 -3.34 12.64 -3 14 C-2.01 14 -1.02 14 0 14 C0 9.38 0 4.76 0 0 Z " fill="#37437A" transform="translate(137,104)"/>
<path d="M0 0 C0.33 0 0.66 0 1 0 C1 4.62 1 9.24 1 14 C-0.32 13.34 -1.64 12.68 -3 12 C-2.25749403 7.91621717 -1.17076699 3.98060777 0 0 Z " fill="#2D4087" transform="translate(534,105)"/>
<path d="M0 0 C-4.83333333 3.89351852 -4.83333333 3.89351852 -7.25 5.4375 C-9.51676473 7.46139708 -9.67993433 9.03939255 -10 12 C-10.33 12 -10.66 12 -11 12 C-11.36567164 5.66169154 -11.36567164 5.66169154 -9.6875 2.625 C-6.74039312 -0.21295477 -3.88706558 -0.10505583 0 0 Z " fill="#E0E8F6" transform="translate(284,99)"/>
<path d="M0 0 C3.14737182 0.69941596 6.02588876 1.76078698 9 3 C9 2.34 9 1.68 9 1 C9.66 1 10.32 1 11 1 C11 1.99 11 2.98 11 4 C11.99 4.66 12.98 5.32 14 6 C8.29964499 6.4560284 5.45215753 5.60412752 1 2 C0.67 1.34 0.34 0.68 0 0 Z " fill="#546095" transform="translate(510,116)"/>
<path d="M0 0 C0 0.33 0 0.66 0 1 C-0.67546875 1.03738281 -1.3509375 1.07476562 -2.046875 1.11328125 C-2.93890625 1.17902344 -3.8309375 1.24476562 -4.75 1.3125 C-5.63171875 1.37050781 -6.5134375 1.42851563 -7.421875 1.48828125 C-10.34716919 2.06890782 -11.68460922 3.18627722 -14 5 C-17.25 5.1875 -17.25 5.1875 -20 5 C-18.56463142 2.12926284 -16.38027105 1.6482708 -13.4765625 0.59765625 C-9.02344402 -0.47699222 -4.54807317 -0.22573157 0 0 Z " fill="#DE7364" transform="translate(83,60)"/>
<path d="M0 0 C1.98 0 3.96 0 6 0 C6 0.99 6 1.98 6 3 C6.33 3.66 6.66 4.32 7 5 C0.25 6.125 0.25 6.125 -2 5 C-2 4.34 -2 3.68 -2 3 C-1.34 2.67 -0.68 2.34 0 2 C0 1.34 0 0.68 0 0 Z " fill="#505050" transform="translate(503,54)"/>
<path d="M0 0 C0.33 0 0.66 0 1 0 C1.33 5.94 1.66 11.88 2 18 C3.32 18.33 4.64 18.66 6 19 C4.02 19.66 2.04 20.32 0 21 C0 14.07 0 7.14 0 0 Z " fill="#EAF0FC" transform="translate(482,190)"/>
<path d="M0 0 C2.31 0 4.62 0 7 0 C7.33 1.65 7.66 3.3 8 5 C5.6875 5.3125 5.6875 5.3125 3 5 C1.1875 2.5 1.1875 2.5 0 0 Z " fill="#39477E" transform="translate(198,95)"/>
<path d="M0 0 C1.8871875 0.0309375 1.8871875 0.0309375 3.8125 0.0625 C4.1425 0.7225 4.4725 1.3825 4.8125 2.0625 C2.1725 2.3925 -0.4675 2.7225 -3.1875 3.0625 C-3.1875 4.0525 -3.1875 5.0425 -3.1875 6.0625 C-3.8475 6.0625 -4.5075 6.0625 -5.1875 6.0625 C-4.8575 4.7425 -4.5275 3.4225 -4.1875 2.0625 C-5.1775 1.7325 -6.1675 1.4025 -7.1875 1.0625 C-4.43671116 0.14557039 -2.82801087 -0.04636083 0 0 Z " fill="#515D91" transform="translate(282.1875,93.9375)"/>
<path d="M0 0 C3.3125 -0.25 3.3125 -0.25 7 0 C8.9375 2 8.9375 2 10 4 C6.44706507 5.14947895 5.20023331 5.0868937 1.6875 3.5625 C0.800625 3.046875 -0.08625 2.53125 -1 2 C-0.67 1.34 -0.34 0.68 0 0 Z " fill="#1D1D1D" transform="translate(508,55)"/>
<path d="M0 0 C0.66 0.99 1.32 1.98 2 3 C1.01 4.485 1.01 4.485 0 6 C0.04125 6.825 0.0825 7.65 0.125 8.5 C0 11 0 11 -2 12.8125 C-2.66 13.204375 -3.32 13.59625 -4 14 C-3.46148032 8.72250715 -2.22656164 4.74354436 0 0 Z " fill="#455289" transform="translate(69,188)"/>
<path d="M0 0 C1.2065625 0.0309375 1.2065625 0.0309375 2.4375 0.0625 C1.7775 1.3825 1.1175 2.7025 0.4375 4.0625 C-0.2225 4.0625 -0.8825 4.0625 -1.5625 4.0625 C-2.2225 5.3825 -2.8825 6.7025 -3.5625 8.0625 C-4.2225 7.7325 -4.8825 7.4025 -5.5625 7.0625 C-3.33446653 0.08132845 -3.33446653 0.08132845 0 0 Z " fill="#334186" transform="translate(275.5625,95.9375)"/>
<path d="M0 0 C2.46800047 1.15173355 4.04783565 2.04783565 6 4 C5.34 4 4.68 4 4 4 C3.67 4.99 3.34 5.98 3 7 C2.01 6.34 1.02 5.68 0 5 C-1.9896995 4.60986284 -3.99019869 4.26797351 -6 4 C-6 3.67 -6 3.34 -6 3 C-4.02 3 -2.04 3 0 3 C0 2.01 0 1.02 0 0 Z " fill="#4D598D" transform="translate(526,95)"/>
<path d="M0 0 C0 0.33 0 0.66 0 1 C-5.64800112 2.8417395 -11.08507728 3.54775239 -17 4 C-17.33 3.34 -17.66 2.68 -18 2 C-11.88019467 0.59545452 -6.28260706 -0.23268915 0 0 Z " fill="#4A548C" transform="translate(132,154)"/>
<path d="M0 0 C4.55384615 -0.36923077 4.55384615 -0.36923077 6.8125 1.5 C7.204375 1.995 7.59625 2.49 8 3 C7.67 3.66 7.34 4.32 7 5 C4.03 4.505 4.03 4.505 1 4 C0.67 2.68 0.34 1.36 0 0 Z " fill="#334387" transform="translate(512,114)"/>
<path d="M0 0 C0.33 0.66 0.66 1.32 1 2 C1.66 2.33 2.32 2.66 3 3 C2.34 3 1.68 3 1 3 C1 6.3 1 9.6 1 13 C0.34 13 -0.32 13 -1 13 C-1.02696365 11.20841511 -1.04637917 9.41671527 -1.0625 7.625 C-1.07410156 6.62726563 -1.08570313 5.62953125 -1.09765625 4.6015625 C-1 2 -1 2 0 0 Z " fill="#4A558E" transform="translate(231,100)"/>
<path d="M0 0 C1.33881598 0.31058118 2.67109117 0.64944301 4 1 C5.74690919 1.2143934 7.4974023 1.40107653 9.25 1.5625 C10.14203125 1.64628906 11.0340625 1.73007813 11.953125 1.81640625 C12.62859375 1.87699219 13.3040625 1.93757813 14 2 C14 2.33 14 2.66 14 3 C9.05 3 4.1 3 -1 3 C-1.33 3.99 -1.66 4.98 -2 6 C-1.125 1.125 -1.125 1.125 0 0 Z " fill="#C5C5C5" transform="translate(491,71)"/>
<path d="M0 0 C3 2 3 2 3.6875 4.625 C3.790625 5.40875 3.89375 6.1925 4 7 C3.34 6.67 2.68 6.34 2 6 C0.62657169 5.9310528 -0.75002102 5.91532292 -2.125 5.9375 C-4.043125 5.9684375 -4.043125 5.9684375 -6 6 C-5.34 4.35 -4.68 2.7 -4 1 C-2.68 1.99 -1.36 2.98 0 4 C0 2.68 0 1.36 0 0 Z " fill="#BDBDBD" transform="translate(500,58)"/>
<path d="M0 0 C1.2065625 0.0309375 1.2065625 0.0309375 2.4375 0.0625 C1.7775 0.7225 1.1175 1.3825 0.4375 2.0625 C0.1075 2.0625 -0.2225 2.0625 -0.5625 2.0625 C-0.5625 4.7025 -0.5625 7.3425 -0.5625 10.0625 C-1.2225 10.0625 -1.8825 10.0625 -2.5625 10.0625 C-2.75662181 8.58418779 -2.94262131 7.10480684 -3.125 5.625 C-3.22941406 4.80128906 -3.33382813 3.97757813 -3.44140625 3.12890625 C-3.48136719 2.44699219 -3.52132813 1.76507813 -3.5625 1.0625 C-2.5625 0.0625 -2.5625 0.0625 0 0 Z " fill="#343434" transform="translate(472.5625,56.9375)"/>
<path d="M0 0 C1.34882814 2.69765628 0.80338265 4.15164334 0 7 C-2.40545638 8.20272819 -3.94996953 8.10071472 -6.625 8.0625 C-7.85089844 8.04896484 -7.85089844 8.04896484 -9.1015625 8.03515625 C-10.04128906 8.01775391 -10.04128906 8.01775391 -11 8 C-11 7.67 -11 7.34 -11 7 C-8.36 7 -5.72 7 -3 7 C-3.0928125 5.824375 -3.0928125 5.824375 -3.1875 4.625 C-3.125625 3.75875 -3.06375 2.8925 -3 2 C-2.01 1.34 -1.02 0.68 0 0 Z " fill="#616B9E" transform="translate(332,114)"/>
<path d="M0 0 C0.33 0.66 0.66 1.32 1 2 C0.67 2.66 0.34 3.32 0 4 C-2.64 3.67 -5.28 3.34 -8 3 C-8 2.34 -8 1.68 -8 1 C-5.36 0.67 -2.72 0.34 0 0 Z " fill="#313F82" transform="translate(329,117)"/>
<path d="M0 0 C2.64 0 5.28 0 8 0 C5.47376214 2.52623786 2.75469422 4.72438303 0 7 C0 4.69 0 2.38 0 0 Z " fill="#D5553C" transform="translate(62,71)"/>
<path d="M0 0 C2.64 0 5.28 0 8 0 C6.8125 2 6.8125 2 5 4 C2.3125 4.25 2.3125 4.25 0 4 C0 2.68 0 1.36 0 0 Z " fill="#333F7D" transform="translate(241,117)"/>
<path d="M0 0 C2.64 0 5.28 0 8 0 C8 0.33 8 0.66 8 1 C6.35 1 4.7 1 3 1 C3.33 1.66 3.66 2.32 4 3 C4.99 3.33 5.98 3.66 7 4 C6.67 4.99 6.34 5.98 6 7 C3.525 6.01 3.525 6.01 1 5 C1.33 3.68 1.66 2.36 2 1 C1.34 0.67 0.68 0.34 0 0 Z " fill="#4D578C" transform="translate(109,94)"/>
<path d="M0 0 C1.77007714 -0.08114106 3.54122098 -0.13925505 5.3125 -0.1875 C6.29863281 -0.22230469 7.28476563 -0.25710937 8.30078125 -0.29296875 C11 0 11 0 12.85546875 1.51171875 C13.23316406 2.00285156 13.61085938 2.49398437 14 3 C10.95438718 3 8.30174598 2.5626816 5.3125 2 C4.31863281 1.814375 3.32476562 1.62875 2.30078125 1.4375 C1.54152344 1.293125 0.78226562 1.14875 0 1 C0 0.67 0 0.34 0 0 Z " fill="#D4513E" transform="translate(73,61)"/>
<path d="M0 0 C0.66 0 1.32 0 2 0 C1.01 2.97 0.02 5.94 -1 9 C-1.66 8.67 -2.32 8.34 -3 8 C-2.67 6.02 -2.34 4.04 -2 2 C-1.34 2 -0.68 2 0 2 C0 1.34 0 0.68 0 0 Z " fill="#3E4A86" transform="translate(228,207)"/>
<path d="M0 0 C1.134375 0.020625 2.26875 0.04125 3.4375 0.0625 C3.4375 1.0525 3.4375 2.0425 3.4375 3.0625 C0.5625 3.1875 0.5625 3.1875 -2.5625 3.0625 C-3.2225 2.4025 -3.8825 1.7425 -4.5625 1.0625 C-3.5625 0.0625 -3.5625 0.0625 0 0 Z " fill="#30417F" transform="translate(522.5625,94.9375)"/>
<path d="M0 0 C3.96 0.33 7.92 0.66 12 1 C12 1.66 12 2.32 12 3 C9.69 2.67 7.38 2.34 5 2 C5 2.66 5 3.32 5 4 C4.34 4 3.68 4 3 4 C3 3.01 3 2.02 3 1 C2.01 0.67 1.02 0.34 0 0 Z " fill="#32407F" transform="translate(237,95)"/>
<path d="M0 0 C2.97 0 5.94 0 9 0 C9 0.33 9 0.66 9 1 C7.7934375 1.185625 7.7934375 1.185625 6.5625 1.375 C5.716875 1.58125 4.87125 1.7875 4 2 C3.67 2.66 3.34 3.32 3 4 C1.68 4 0.36 4 -1 4 C-0.67 2.68 -0.34 1.36 0 0 Z " fill="#4A548E" transform="translate(360,94)"/>
<path d="M0 0 C0 3 0 3 -2 6 C-2.66 6 -3.32 6 -4 6 C-4.33 6.66 -4.66 7.32 -5 8 C-5 6.02 -5 4.04 -5 2 C-3.35 1.34 -1.7 0.68 0 0 Z " fill="#BFBFBF" transform="translate(493,64)"/>
<path d="M0 0 C0.99 0.33 1.98 0.66 3 1 C2.67 2.65 2.34 4.3 2 6 C1.01 6 0.02 6 -1 6 C-0.67 4.02 -0.34 2.04 0 0 Z " fill="#415088" transform="translate(370,254)"/>
<path d="M0 0 C0.66 0.33 1.32 0.66 2 1 C-0.06756277 3.7972908 -1.14440371 4.02692273 -4.6875 4.6875 C-5.780625 4.790625 -6.87375 4.89375 -8 5 C-5.31158141 2.74754119 -3.35358125 1.11786042 0 0 Z " fill="#4A558B" transform="translate(215,161)"/>
<path d="M0 0 C-0.66 1.32 -1.32 2.64 -2 4 C-3.9375 3.625 -3.9375 3.625 -6 3 C-6.33 2.34 -6.66 1.68 -7 1 C-4.53721199 -0.231394 -2.7204945 -0.07159196 0 0 Z " fill="#0D0D0F" transform="translate(499,81)"/>
<path d="M0 0 C0.99 0 1.98 0 3 0 C3 0.66 3 1.32 3 2 C3.99 2 4.98 2 6 2 C6 3.32 6 4.64 6 6 C3.00306862 5.00102287 1.97290587 4.34869747 0 2 C0 1.34 0 0.68 0 0 Z " fill="#3F3F3F" transform="translate(494,56)"/>
<path d="M0 0 C1.98 0 3.96 0 6 0 C4.25 5.75 4.25 5.75 2 8 C2.33 5.69 2.66 3.38 3 1 C2.01 0.67 1.02 0.34 0 0 Z " fill="#404B7A" transform="translate(220,95)"/>
<path d="M0 0 C0.66 0 1.32 0 2 0 C2.33 1.98 2.66 3.96 3 6 C1.68 5.67 0.36 5.34 -1 5 C-0.67 3.35 -0.34 1.7 0 0 Z " fill="#0B0B0B" transform="translate(478,67)"/>
<path d="M0 0 C0.99 0 1.98 0 3 0 C5 3 5 3 5 6 C3.68 5.67 2.36 5.34 1 5 C0.67 3.35 0.34 1.7 0 0 Z " fill="#0E0E0E" transform="translate(497,44)"/>
<path d="M0 0 C0.33 0.99 0.66 1.98 1 3 C-0.4375 5.1875 -0.4375 5.1875 -2 7 C-2.99 6.01 -3.98 5.02 -5 4 C-3.35 2.68 -1.7 1.36 0 0 Z " fill="#3D4986" transform="translate(88,167)"/>
<path d="M0 0 C-0.33 1.32 -0.66 2.64 -1 4 C-2.32 4 -3.64 4 -5 4 C-5.33 3.01 -5.66 2.02 -6 1 C-4 0 -4 0 0 0 Z " fill="#1F1F1F" transform="translate(508,59)"/>
<path d="M0 0 C0.99 0.33 1.98 0.66 3 1 C1.68 2.65 0.36 4.3 -1 6 C-1.33 4.35 -1.66 2.7 -2 1 C-1.34 0.67 -0.68 0.34 0 0 Z " fill="#3D4A83" transform="translate(541,217)"/>
<path d="M0 0 C1.32 0.33 2.64 0.66 4 1 C4 1.99 4 2.98 4 4 C2.02 4 0.04 4 -2 4 C-1.34 3.67 -0.68 3.34 0 3 C0 2.01 0 1.02 0 0 Z " fill="#34427C" transform="translate(521,117)"/>
<path d="M0 0 C2.31 0 4.62 0 7 0 C6.01 1.485 6.01 1.485 5 3 C2.375 3.1875 2.375 3.1875 0 3 C0 2.01 0 1.02 0 0 Z " fill="#30407F" transform="translate(489,117)"/>
<path d="M0 0 C0.66 0.33 1.32 0.66 2 1 C2 1.66 2 2.32 2 3 C2.99 3 3.98 3 5 3 C5.33 3.99 5.66 4.98 6 6 C4.02 5.34 2.04 4.68 0 4 C0 2.68 0 1.36 0 0 Z " fill="#303F8A" transform="translate(458,103)"/>
<path d="M0 0 C0.66 0 1.32 0 2 0 C2 0.66 2 1.32 2 2 C2.66 2 3.32 2 4 2 C3.625 3.9375 3.625 3.9375 3 6 C2.01 6.495 2.01 6.495 1 7 C0.67 4.69 0.34 2.38 0 0 Z " fill="#2E3F85" transform="translate(204,101)"/>
</svg>
