<?xml version="1.0" encoding="UTF-8"?>
<svg version="1.1" xmlns="http://www.w3.org/2000/svg" width="748" height="469">
<path d="M0 0 C246.84 0 493.68 0 748 0 C748 154.77 748 309.54 748 469 C501.16 469 254.32 469 0 469 C0 314.23 0 159.46 0 0 Z " fill="#FEFEFE" transform="translate(0,0)"/>
<path d="M0 0 C2.93303381 0.02896523 5.8642468 0.02054675 8.79736328 0.00756836 C34.97719668 0.03534661 66.30287412 3.74095836 86.39111328 22.63061523 C88.13984889 23.73396134 88.13984889 23.73396134 90.49267578 22.81811523 C93.06615607 21.46694045 95.25478076 19.97439266 97.56689453 18.21655273 C118.74001843 3.14203912 144.55293298 -0.14319321 169.81689453 0.09155273 C171.11519699 0.09703629 171.11519699 0.09703629 172.43972778 0.10263062 C189.32171488 0.18600757 206.05076288 0.6774742 222.06689453 6.46655273 C223.10974609 6.81975586 224.15259766 7.17295898 225.22705078 7.53686523 C239.95389326 12.8884769 252.15436319 20.25229242 263.06689453 31.46655273 C264.06269531 32.4662207 264.06269531 32.4662207 265.07861328 33.48608398 C284.40629361 54.116754 290.26031942 85.54616836 290.18041992 112.88085938 C290.18056595 114.19890564 290.18071198 115.5169519 290.18086243 116.87493896 C290.18114755 120.46314844 290.17529712 124.05132401 290.16828847 127.63952565 C290.16200727 131.39912189 290.16144738 135.15871903 290.16026306 138.9183197 C290.15716374 146.02601205 290.14896932 153.13368889 290.13891357 160.24137443 C290.12561085 169.85422203 290.12024122 179.46707391 290.11441135 189.0799284 C290.1050284 204.20881478 290.08510017 219.33766844 290.06689453 234.46655273 C267.29689453 234.46655273 244.52689453 234.46655273 221.06689453 234.46655273 C221.06689453 224.89655273 221.06689453 215.32655273 221.06689453 205.46655273 C216.11689453 206.45655273 216.11689453 206.45655273 211.06689453 207.46655273 C211.39689453 209.03405273 211.72689453 210.60155273 212.06689453 212.21655273 C213.19722828 218.33786719 213.26183287 224.26101553 213.06689453 230.46655273 C212.40689453 230.13655273 211.74689453 229.80655273 211.06689453 229.46655273 C210.43408203 226.96264648 210.43408203 226.96264648 209.94189453 223.90405273 C209.77431641 222.89213867 209.60673828 221.88022461 209.43408203 220.83764648 C209.31291016 220.05518555 209.19173828 219.27272461 209.06689453 218.46655273 C207.41689453 218.46655273 205.76689453 218.46655273 204.06689453 218.46655273 C204.39689453 217.47655273 204.72689453 216.48655273 205.06689453 215.46655273 C206.05689453 215.46655273 207.04689453 215.46655273 208.06689453 215.46655273 C208.03595703 214.04342773 208.03595703 214.04342773 208.00439453 212.59155273 C208.06689453 209.46655273 208.06689453 209.46655273 209.06689453 207.46655273 C207.74689453 207.46655273 206.42689453 207.46655273 205.06689453 207.46655273 C204.73689453 205.15655273 204.40689453 202.84655273 204.06689453 200.46655273 C203.21417969 200.68311523 203.21417969 200.68311523 202.34423828 200.90405273 C197.44427248 202.08200779 193.10236333 202.680828 188.06689453 202.46655273 C188.39689453 203.45655273 188.72689453 204.44655273 189.06689453 205.46655273 C190.25340713 209.55250106 190.21554632 213.22997667 190.06689453 217.46655273 C193.69689453 217.46655273 197.32689453 217.46655273 201.06689453 217.46655273 C200.73689453 218.12655273 200.40689453 218.78655273 200.06689453 219.46655273 C197.41829026 220.06010887 194.77492131 220.20864542 192.06689453 220.46655273 C192.39689453 223.43655273 192.72689453 226.40655273 193.06689453 229.46655273 C195.04689453 229.79655273 197.02689453 230.12655273 199.06689453 230.46655273 C199.39689453 228.81655273 199.72689453 227.16655273 200.06689453 225.46655273 C201.38689453 225.46655273 202.70689453 225.46655273 204.06689453 225.46655273 C204.39689453 228.10655273 204.72689453 230.74655273 205.06689453 233.46655273 C207.37689453 233.46655273 209.68689453 233.46655273 212.06689453 233.46655273 C212.06689453 234.12655273 212.06689453 234.78655273 212.06689453 235.46655273 C203.65189453 236.45655273 203.65189453 236.45655273 195.06689453 237.46655273 C195.39689453 238.82780273 195.72689453 240.18905273 196.06689453 241.59155273 C196.89681949 245.2911478 197.26215157 248.65904041 197.06689453 252.46655273 C202.01689453 251.47655273 202.01689453 251.47655273 207.06689453 250.46655273 C207.39689453 248.81655273 207.72689453 247.16655273 208.06689453 245.46655273 C208.95995327 243.07426585 210.01585479 240.79711911 211.06689453 238.46655273 C212.38689453 238.46655273 213.70689453 238.46655273 215.06689453 238.46655273 C215.39689453 237.80655273 215.72689453 237.14655273 216.06689453 236.46655273 C218.09501514 244.60780282 219.6937195 252.73305121 220.97631836 261.02075195 C221.55091695 264.66381289 222.2218342 268.21941783 223.14892578 271.79077148 C223.99958071 275.197011 224.2412713 277.97901745 224.06689453 281.46655273 C223.07689453 281.13655273 222.08689453 280.80655273 221.06689453 280.46655273 C220.40689453 277.16655273 219.74689453 273.86655273 219.06689453 270.46655273 C213.45689453 270.79655273 207.84689453 271.12655273 202.06689453 271.46655273 C202.39689453 275.75655273 202.72689453 280.04655273 203.06689453 284.46655273 C202.07689453 284.13655273 201.08689453 283.80655273 200.06689453 283.46655273 C199.18798828 280.69311523 199.18798828 280.69311523 198.50439453 277.09155273 C198.27623047 275.92881836 198.04806641 274.76608398 197.81298828 273.56811523 C197.56224196 272.20130194 197.31370102 270.83408294 197.06689453 269.46655273 C196.92888428 268.70971191 196.79087402 267.95287109 196.64868164 267.1730957 C196.32082569 265.37341976 195.99375133 263.57360135 195.66723633 261.77368164 C194.37014214 254.62832262 193.06490342 247.48446319 191.75439453 240.34155273 C191.52437241 239.0876474 191.52437241 239.0876474 191.28970337 237.80841064 C189.18354386 226.34462919 187.01698527 214.8981163 184.6652832 203.48168945 C183.47849857 197.69018044 182.44918166 191.89054169 181.52514648 186.05102539 C181.08115775 183.28982653 181.08115775 183.28982653 180.06689453 179.96655273 C178.94073488 176.02499394 178.28357313 172.12476119 177.64111328 168.07983398 C177.19987662 165.30334476 176.7435667 162.53123661 176.27392578 159.75952148 C176.13656006 158.94717041 175.99919434 158.13481934 175.85766602 157.29785156 C175.58321766 155.67646291 175.30800541 154.05520336 175.03198242 152.43408203 C174.06689453 146.69016228 174.06689453 146.69016228 174.06689453 144.46655273 C172.90673828 144.55356445 172.90673828 144.55356445 171.72314453 144.64233398 C162.4489041 145.0440647 158.05175827 143.08915613 151.31689453 136.96655273 C144.38769585 129.26744309 142.47487303 123.41996542 142.61767578 113.01733398 C143.56193555 105.55357635 148.23300581 99.10374633 154.06689453 94.46655273 C156.87939453 93.65405273 156.87939453 93.65405273 159.06689453 93.46655273 C162.06689453 97.21655273 162.06689453 97.21655273 162.06689453 99.46655273 C168.33689453 99.46655273 174.60689453 99.46655273 181.06689453 99.46655273 C181.72689453 98.14655273 182.38689453 96.82655273 183.06689453 95.46655273 C184.87939453 94.40405273 184.87939453 94.40405273 187.06689453 94.46655273 C191.48848799 98.22490717 195.96830065 102.97371136 198.06689453 108.46655273 C198.23304415 111.19534904 198.30096865 113.80569249 198.25439453 116.52905273 C198.25375 117.24899414 198.25310547 117.96893555 198.25244141 118.71069336 C198.22592315 121.8840441 198.07672988 124.43704668 197.06689453 127.46655273 C196.94495503 129.95922302 196.88178416 132.41167076 196.87939453 134.90405273 C196.86521484 136.22276367 196.85103516 137.54147461 196.83642578 138.90014648 C197.05036935 142.21083254 197.46414212 143.68549222 199.06689453 146.46655273 C199.06689453 147.45655273 199.06689453 148.44655273 199.06689453 149.46655273 C199.72689453 149.13655273 200.38689453 148.80655273 201.06689453 148.46655273 C201.72244572 145.93922038 201.72244572 145.93922038 202.06689453 143.46655273 C203.05689453 144.12655273 204.04689453 144.78655273 205.06689453 145.46655273 C207.63812824 145.85132477 207.63812824 145.85132477 210.44189453 145.96655273 C214.43694745 146.18666584 217.38750425 146.91847419 221.06689453 148.46655273 C220.94752808 142.70472275 220.82322206 136.94302685 220.69458008 131.18139648 C220.65159603 129.22634688 220.60990003 127.27126847 220.56958008 125.31616211 C220.76533154 96.98624409 220.76533154 96.98624409 208.06689453 72.46655273 C196.77208879 62.03755092 185.03889244 60.11079695 170.06689453 60.09155273 C169.06400391 60.06706055 168.06111328 60.04256836 167.02783203 60.01733398 C155.5971698 59.97302909 146.35024373 63.55900766 138.06689453 71.46655273 C122.22488998 88.06144463 124.74473635 112.56408918 124.66217756 133.83438563 C124.64636822 137.38178895 124.61963657 140.92911111 124.59414673 144.47645569 C124.54766983 151.16954299 124.51077707 157.8626461 124.47747386 164.55581051 C124.43181852 173.61746381 124.37106116 182.67901569 124.31122589 191.74058437 C124.21757537 205.98252256 124.14384581 220.22449184 124.06689453 234.46655273 C101.29689453 234.46655273 78.52689453 234.46655273 55.06689453 234.46655273 C55.01791016 225.48436523 54.96892578 216.50217773 54.91845703 207.24780273 C54.87853179 200.80521147 54.83740762 194.36263652 54.79456329 187.92006493 C54.73933416 179.59134438 54.68685847 171.26263763 54.64501953 162.93383789 C54.61186455 156.33555333 54.57190778 149.73734922 54.52410448 143.13915396 C54.49907045 139.65214553 54.47722405 136.16518885 54.46355057 132.67811584 C55.24659946 99.93793437 55.24659946 99.93793437 41.06689453 71.46655273 C31.09648507 61.79625593 18.65639041 59.14385074 5.19189453 59.09155273 C-9.89583353 59.37104921 -20.16140244 63.03334256 -30.80419922 73.96655273 C-34.59591936 78.41921492 -36.43951247 82.52817806 -37.99560547 88.15405273 C-38.31658203 89.29229492 -38.63755859 90.43053711 -38.96826172 91.60327148 C-41.23814796 100.69200628 -42.23462554 109.05629427 -42.25195312 118.44360352 C-42.26199875 119.70327438 -42.27204437 120.96294525 -42.28239441 122.26078796 C-42.30947519 125.68362773 -42.32477796 129.10642687 -42.33782244 132.52934504 C-42.35354998 136.11815152 -42.38030901 139.70687617 -42.40585327 143.29562378 C-42.4524719 150.07741746 -42.48929735 156.85922683 -42.52252614 163.6410979 C-42.56804984 172.81533922 -42.62886039 181.98947874 -42.68877411 191.16363525 C-42.78264038 205.59788981 -42.85621924 220.0321746 -42.93310547 234.46655273 C-65.37310547 234.46655273 -87.81310547 234.46655273 -110.93310547 234.46655273 C-111.05401457 200.3746639 -111.05401457 200.3746639 -111.07958984 185.98413086 C-111.09732505 176.08507575 -111.11806534 166.18609776 -111.15942383 156.28710938 C-111.18954311 149.07467722 -111.20873128 141.86230821 -111.21537095 134.6498149 C-111.21924553 130.83901598 -111.22820028 127.02839754 -111.25029564 123.21765709 C-111.43887768 89.32187371 -108.07766824 55.56082324 -83.36132812 29.90258789 C-61.20066534 7.62070439 -30.62960117 -0.32844709 0 0 Z " fill="#2E4087" transform="translate(133.93310546875,165.533447265625)"/>
<path d="M0 0 C3.02896639 1.1358624 5.88684655 2.4429339 8.75 3.9375 C18.80727943 8.92889053 25.87885341 9.24242834 38 10 C38 23.86 38 37.72 38 52 C32.30546268 52 31.21484117 51.99271274 26.8125 49.1875 C25.97332031 48.66542969 25.13414062 48.14335937 24.26953125 47.60546875 C22.27014516 46.19110097 20.69649484 44.74833811 19 43 C18.99589111 44.05574219 18.99178223 45.11148438 18.98754883 46.19921875 C18.68595869 97.82318108 18.68595869 97.82318108 6 121 C5.30970703 122.43279297 5.30970703 122.43279297 4.60546875 123.89453125 C0.08597598 132.99863916 -6.69630938 140.96500702 -14 148 C-12.58852884 151.25283201 -10.90672627 153.22954548 -8.3125 155.625 C12.28268058 175.84842642 17.97488187 204.94781006 18.25 232.703125 C18.3398042 243.80346074 18.13293622 254.89982595 18 266 C-4.44 266 -26.88 266 -50 266 C-50.375 246.625 -50.375 246.625 -50.47802734 240.57275391 C-50.51329284 238.95734124 -50.5492205 237.34194283 -50.5859375 235.7265625 C-50.59729736 234.91405029 -50.60865723 234.10153809 -50.62036133 233.2644043 C-50.94801537 220.02007522 -54.41976111 205.68129626 -64 196 C-84.41898812 178.76946586 -109.48379774 177.37654376 -135.09350586 179.46240234 C-151.11143854 181.04276981 -165.88912025 187.12710728 -176.3515625 199.74609375 C-183.91279264 210.08455297 -186.07462684 222.01408035 -186.31640625 234.5546875 C-186.33505737 235.35463135 -186.3537085 236.1545752 -186.3729248 236.97875977 C-186.44081013 239.94406944 -186.50122083 242.90954645 -186.5625 245.875 C-186.706875 252.51625 -186.85125 259.1575 -187 266 C-209.44 266 -231.88 266 -255 266 C-255.020625 259.19375 -255.04125 252.3875 -255.0625 245.375 C-255.071604 243.25755371 -255.08070801 241.14010742 -255.09008789 238.95849609 C-255.1602945 211.69283211 -255.1602945 211.69283211 -251.734375 200.55859375 C-251.03644666 198.12698173 -250.66205134 195.8134566 -250.3125 193.3125 C-247.35088797 177.81339703 -235.9237798 161.81253968 -225 151 C-224.34 150.67 -223.68 150.34 -223 150 C-224.30116867 147.07862611 -225.60221194 145.27980064 -228 143.1875 C-236.71283699 134.71112831 -243.1971557 123.04502681 -248 112 C-248.37769531 111.15308594 -248.75539063 110.30617188 -249.14453125 109.43359375 C-258.33666215 85.78193109 -255.22480313 56.57847579 -255 32 C-232.56 32 -210.12 32 -187 32 C-186.6875 50.6875 -186.6875 50.6875 -186.61206055 56.4987793 C-186.38890327 68.8084327 -185.40609241 80.333094 -179.625 91.4375 C-179.06039062 92.54996094 -178.49578125 93.66242188 -177.9140625 94.80859375 C-174.30267873 100.83002342 -170.53618554 104.66777774 -164.5 108.25 C-163.3965625 108.91515625 -162.293125 109.5803125 -161.15625 110.265625 C-157.77070805 112.20931621 -157.77070805 112.20931621 -153 114 C-153 100.8 -153 87.6 -153 74 C-147.39 74 -141.78 74 -136 74 C-136 88.85 -136 103.7 -136 119 C-133.03 119 -130.06 119 -127 119 C-127 99.2 -127 79.4 -127 59 C-121.39 59 -115.78 59 -110 59 C-110 78.8 -110 98.6 -110 119 C-107.03 119 -104.06 119 -101 119 C-101 107.45 -101 95.9 -101 84 C-95.39 84 -89.78 84 -84 84 C-84 93.9 -84 103.8 -84 114 C-70.39021597 107.2097263 -70.39021597 107.2097263 -60.3828125 96.2578125 C-59.92648437 95.51273437 -59.47015625 94.76765625 -59 94 C-58.34 94 -57.68 94 -57 94 C-56.814375 92.71996094 -56.814375 92.71996094 -56.625 91.4140625 C-55.99078787 87.94967875 -55.06831376 84.72919099 -54 81.375 C-51.68722946 74.29950364 -51.68722946 74.29950364 -50.79467773 66.96582031 C-50.77449585 66.17449707 -50.75431396 65.38317383 -50.73352051 64.56787109 C-50.71704468 63.74625488 -50.70056885 62.92463867 -50.68359375 62.078125 C-50.65561707 60.9341626 -50.65561707 60.9341626 -50.6270752 59.76708984 C-50.5589649 56.92817364 -50.49869679 54.08907365 -50.4375 51.25 C-50.293125 44.8975 -50.14875 38.545 -50 32 C-30.53 32 -11.06 32 9 32 C7.02 28.37 5.04 24.74 3 21 C-2.87825777 6.22491967 -2.87825777 6.22491967 -1.0625 1.625 C-0.711875 1.08875 -0.36125 0.5525 0 0 Z " fill="#2E4087" transform="translate(710,134)"/>
<path d="M0 0 C1.75 2.1875 1.75 2.1875 1.75 4.1875 C8.02 4.1875 14.29 4.1875 20.75 4.1875 C21.41 2.8675 22.07 1.5475 22.75 0.1875 C24.5625 -0.875 24.5625 -0.875 26.75 -0.8125 C31.17159346 2.94585444 35.65140612 7.69465862 37.75 13.1875 C37.91614962 15.91629631 37.98407412 18.52663976 37.9375 21.25 C37.93685547 21.96994141 37.93621094 22.68988281 37.93554688 23.43164062 C37.90902862 26.60499137 37.75983535 29.15799394 36.75 32.1875 C36.6280605 34.68017028 36.56488963 37.13261802 36.5625 39.625 C36.54832031 40.94371094 36.53414063 42.26242187 36.51953125 43.62109375 C36.73347482 46.93177981 37.14724758 48.40643949 38.75 51.1875 C38.75 52.1775 38.75 53.1675 38.75 54.1875 C39.41 53.8575 40.07 53.5275 40.75 53.1875 C41.40555119 50.66016765 41.40555119 50.66016765 41.75 48.1875 C42.74 48.8475 43.73 49.5075 44.75 50.1875 C47.18770744 50.49828238 47.18770744 50.49828238 49.875 50.5625 C57.07636036 51.12376851 62.8641988 53.13601241 68.1875 58.125 C72.16150948 62.87442596 73.03629826 66.03208737 72.75 72.1875 C74.73 72.6825 74.73 72.6825 76.75 73.1875 C75.76 75.1675 75.76 75.1675 74.75 77.1875 C76.4 77.5175 78.05 77.8475 79.75 78.1875 C79.792721 79.85361905 79.79063832 81.52132885 79.75 83.1875 C78.75 84.1875 78.75 84.1875 76.25 84.25 C75.425 84.229375 74.6 84.20875 73.75 84.1875 C73.42 84.1875 73.09 84.1875 72.75 84.1875 C72.255 86.1675 72.255 86.1675 71.75 88.1875 C65 89.3125 65 89.3125 62.75 88.1875 C62.42 91.8175 62.09 95.4475 61.75 99.1875 C55.40176798 101.49594801 49.45518586 101.38568283 42.75 101.1875 C43.08 102.5075 43.41 103.8275 43.75 105.1875 C38.29538831 106.57279821 33.38281599 107.4271943 27.75 107.1875 C28.08 108.1775 28.41 109.1675 28.75 110.1875 C29.9365126 114.27344833 29.89865179 117.95092394 29.75 122.1875 C33.38 122.1875 37.01 122.1875 40.75 122.1875 C40.42 122.8475 40.09 123.5075 39.75 124.1875 C37.10139573 124.78105614 34.45802678 124.92959269 31.75 125.1875 C32.245 129.6425 32.245 129.6425 32.75 134.1875 C34.73 134.5175 36.71 134.8475 38.75 135.1875 C39.08 133.5375 39.41 131.8875 39.75 130.1875 C41.07 130.1875 42.39 130.1875 43.75 130.1875 C44.08 132.8275 44.41 135.4675 44.75 138.1875 C47.06 138.1875 49.37 138.1875 51.75 138.1875 C51.75 138.8475 51.75 139.5075 51.75 140.1875 C43.335 141.1775 43.335 141.1775 34.75 142.1875 C35.08 143.54875 35.41 144.91 35.75 146.3125 C36.57992496 150.01209506 36.94525704 153.37998768 36.75 157.1875 C41.7 156.1975 41.7 156.1975 46.75 155.1875 C47.08 153.5375 47.41 151.8875 47.75 150.1875 C48.64305874 147.79521311 49.69896026 145.51806638 50.75 143.1875 C52.07 143.1875 53.39 143.1875 54.75 143.1875 C55.08 142.5275 55.41 141.8675 55.75 141.1875 C57.7781206 149.32875009 59.37682497 157.45399847 60.65942383 165.74169922 C61.23402242 169.38476016 61.90493967 172.94036509 62.83203125 176.51171875 C63.68268618 179.91795826 63.92437676 182.69996472 63.75 186.1875 C62.76 185.8575 61.77 185.5275 60.75 185.1875 C60.09 181.8875 59.43 178.5875 58.75 175.1875 C53.14 175.5175 47.53 175.8475 41.75 176.1875 C42.245 182.6225 42.245 182.6225 42.75 189.1875 C41.76 188.8575 40.77 188.5275 39.75 188.1875 C38.87109375 185.4140625 38.87109375 185.4140625 38.1875 181.8125 C37.95933594 180.64976562 37.73117187 179.48703125 37.49609375 178.2890625 C37.24534743 176.9222492 36.99680649 175.55503021 36.75 174.1875 C36.61198975 173.43065918 36.47397949 172.67381836 36.33178711 171.89404297 C36.00393115 170.09436703 35.6768568 168.29454862 35.3503418 166.49462891 C34.05324761 159.34926988 32.74800889 152.20541046 31.4375 145.0625 C31.28415192 144.22656311 31.13080383 143.39062622 30.97280884 142.52935791 C28.86664933 131.06557645 26.70009074 119.61906357 24.34838867 108.20263672 C23.16160404 102.4111277 22.13228713 96.61148896 21.20825195 90.77197266 C20.76426322 88.0107738 20.76426322 88.0107738 19.75 84.6875 C18.62384035 80.74594121 17.9666786 76.84570846 17.32421875 72.80078125 C16.88298208 70.02429203 16.42667217 67.25218387 15.95703125 64.48046875 C15.75098267 63.26194214 15.75098267 63.26194214 15.54077148 62.01879883 C15.26632313 60.39741018 14.99111088 58.77615062 14.71508789 57.1550293 C13.75 51.41110955 13.75 51.41110955 13.75 49.1875 C12.9765625 49.24550781 12.203125 49.30351562 11.40625 49.36328125 C2.13200957 49.76501196 -2.26513627 47.81010339 -9 41.6875 C-15.92919868 33.98839036 -17.8420215 28.14091268 -17.69921875 17.73828125 C-16.7470602 10.21208888 -12.04683771 3.91649918 -6.25 -0.8125 C-3.1910524 -2.38832149 -2.71873172 -2.19008944 0 0 Z " fill="#FD201E" transform="translate(294.25,260.8125)"/>
<path d="M0 0 C1.75 2.1875 1.75 2.1875 1.75 4.1875 C8.02 4.1875 14.29 4.1875 20.75 4.1875 C21.41 2.8675 22.07 1.5475 22.75 0.1875 C24.5625 -0.875 24.5625 -0.875 26.75 -0.8125 C31.17817096 2.95144532 35.63486089 7.69363218 37.75 13.1875 C37.94235855 15.87769085 38.02938146 18.43904455 38 21.125 C38.00773437 21.82818359 38.01546875 22.53136719 38.0234375 23.25585938 C38.00812118 27.34148718 37.56163257 30.51391173 35.75 34.1875 C34.76 34.1875 33.77 34.1875 32.75 34.1875 C32.82476562 34.93773437 32.89953125 35.68796875 32.9765625 36.4609375 C32.75 39.1875 32.75 39.1875 31.2109375 41.1015625 C21.35273973 49.1875 21.35273973 49.1875 15.75 49.1875 C15.255 43.2475 15.255 43.2475 14.75 37.1875 C13.76 37.1875 12.77 37.1875 11.75 37.1875 C12.41 41.1475 13.07 45.1075 13.75 49.1875 C5.41329429 49.66117646 0.20289699 49.67772705 -6.25 44.1875 C-12.49389458 38.5112322 -16.60285027 33.43936896 -17.65625 24.890625 C-17.932353 14.72083134 -15.42536031 8.58209292 -8.625 1.125 C-3.64585212 -2.93693643 -3.64585212 -2.93693643 0 0 Z " fill="#314188" transform="translate(294.25,260.8125)"/>
<path d="M0 0 C0.66 0.66 1.32 1.32 2 2 C1.31035156 2.02578125 0.62070312 2.0515625 -0.08984375 2.078125 C-14.10862231 2.92425155 -22.94853545 9.77308605 -32.6875 19.421875 C-34.22883091 21.08067351 -34.22883091 21.08067351 -35 24 C-33.68 23.67 -32.36 23.34 -31 23 C-31.38671875 23.43570313 -31.7734375 23.87140625 -32.171875 24.3203125 C-39.68175107 32.9083391 -44.78763001 40.37183897 -44.48046875 52.05859375 C-43.70488603 56.80667333 -41.4763949 59.76965131 -38 63 C-37.01 63.639375 -36.02 64.27875 -35 64.9375 C-30.10619185 68.3019931 -26.87215138 73.38354587 -25 79 C-26.49739583 80.20442708 -27.99479167 81.40885417 -29.4921875 82.61328125 C-31.25292107 84.12270545 -31.25292107 84.12270545 -33 87 C-43.33487353 82.24730328 -49.88526842 70.82076248 -54.4609375 60.80078125 C-58.93771637 48.14832465 -58.67579254 34.19504651 -53 22 C-46.80656702 9.61313404 -38.74137112 3.17846771 -26 -2 C-17.03944623 -3.9416393 -8.51105142 -3.56809463 0 0 Z " fill="#FE4041" transform="translate(719,41)"/>
<path d="M0 0 C3.02896639 1.1358624 5.88684655 2.4429339 8.75 3.9375 C18.80727943 8.92889053 25.87885341 9.24242834 38 10 C38 23.86 38 37.72 38 52 C28.45802107 52 23.05329728 47.27551717 16.3125 40.8125 C6.4916379 30.75418794 -0.40192587 18.13992172 -2 4 C-1.0625 1.625 -1.0625 1.625 0 0 Z " fill="#FE3D3E" transform="translate(710,134)"/>
<path d="M0 0 C0.99 0.66 1.98 1.32 3 2 C5.43770744 2.31078238 5.43770744 2.31078238 8.125 2.375 C15.32636036 2.93626851 21.1141988 4.94851241 26.4375 9.9375 C30.41150948 14.68692596 31.28629826 17.84458737 31 24 C32.32 24.33 33.64 24.66 35 25 C34.34 26.32 33.68 27.64 33 29 C34.65 29.33 36.3 29.66 38 30 C38.042721 31.66611905 38.04063832 33.33382885 38 35 C37 36 37 36 34.5 36.0625 C33.675 36.041875 32.85 36.02125 32 36 C31.67 36 31.34 36 31 36 C30.67 37.32 30.34 38.64 30 40 C23.25 41.125 23.25 41.125 21 40 C20.5859375 37.93359375 20.5859375 37.93359375 20.375 35.4375 C20.30023438 34.61121094 20.22546875 33.78492188 20.1484375 32.93359375 C20.07496094 31.97646484 20.07496094 31.97646484 20 31 C16.32051278 29.31356836 13.16617799 28.03541498 9.1875 27.1875 C3.19601127 25.81567186 -2.66702898 22.33297102 -7 18 C-6.68902067 13.43896979 -5.28694361 9.933543 -3 6 C-2.34 5.67 -1.68 5.34 -1 5 C-0.34444881 2.47266765 -0.34444881 2.47266765 0 0 Z " fill="#89AA04" transform="translate(336,309)"/>
<path d="M0 0 C0.33 2.31 0.66 4.62 1 7 C2.32 7 3.64 7 5 7 C4.67 9.64 4.34 12.28 4 15 C3.01 15.33 2.02 15.66 1 16 C0.67 16.66 0.34 17.32 0 18 C1.65 18 3.3 18 5 18 C6.61064629 21.65079826 7.44894091 25.0507432 8 29 C8.33 26.03 8.66 23.06 9 20 C10.32 20.33 11.64 20.66 13 21 C13 23.31 13 25.62 13 28 C12.01 28 11.02 28 10 28 C10 28.66 10 29.32 10 30 C10.66 30 11.32 30 12 30 C12 30.66 12 31.32 12 32 C11.01 32 10.02 32 9 32 C9 32.66 9 33.32 9 34 C9.66 34 10.32 34 11 34 C11 35.32 11 36.64 11 38 C9.68 38 8.36 38 7 38 C6.87625 38.94875 6.7525 39.8975 6.625 40.875 C6 44 6 44 4 46 C3.83312552 48.58354218 3.83312552 48.58354218 4 51 C0.32589215 52.17571451 -3.16929183 52.07366746 -7 52 C-8.26305335 46.92523206 -9.27036084 42.27203646 -9 37 C-3.16200408 35.30167391 1.93107371 34.74712807 8 35 C8 34.34 8 33.68 8 33 C5.69 33 3.38 33 1 33 C0.67 30.36 0.34 27.72 0 25 C-1.32 25 -2.64 25 -4 25 C-4.33 26.65 -4.66 28.3 -5 30 C-7.9375 29.625 -7.9375 29.625 -11 29 C-12.4783226 26.04335481 -12.06032783 23.25770263 -12 20 C-9.36 19.34 -6.72 18.68 -4 18 C-7.3 17.67 -10.6 17.34 -14 17 C-14.66 12.05 -15.32 7.1 -16 2 C-4.88392857 -0.14285714 -4.88392857 -0.14285714 0 0 Z " fill="#F6F3E7" transform="translate(338,366)"/>
<path d="M0 0 C1 1 1 1 1.125 3.6875 C1.00456609 6.87899873 0.59691657 9.86618801 0 13 C1.41468311 13.96125903 2.8318364 14.91888325 4.25 15.875 C5.03890625 16.40867187 5.8278125 16.94234375 6.640625 17.4921875 C10.97781262 20.26396634 14.65003313 21.43817985 19.68359375 22.33984375 C22 23 22 23 27 26 C26.67 29.96 26.34 33.92 26 38 C25.34 37.01 24.68 36.02 24 35 C21.27909776 34.5267359 21.27909776 34.5267359 18.1875 34.5 C13.43593059 34.3583383 11.01788941 33.45575583 7 31 C6.01 31.33 5.02 31.66 4 32 C-2.54111894 30.30553871 -7.41399976 26.7094749 -11 21 C-11 20.34 -11 19.68 -11 19 C-9.02 18.34 -7.04 17.68 -5 17 C-8.96 17.33 -12.92 17.66 -17 18 C-17.77249145 12.59255982 -18.09752461 7.46137814 -18 2 C-16.12612523 1.6603981 -14.25083303 1.32861309 -12.375 1 C-11.33085937 0.814375 -10.28671875 0.62875 -9.2109375 0.4375 C-6.08222467 0.01120336 -3.1527413 -0.14792921 0 0 Z " fill="#FCF9F6" transform="translate(330,314)"/>
<path d="M0 0 C-1.1875 1.5 -1.1875 1.5 -3 3 C-5.61328125 3.09375 -5.61328125 3.09375 -8 3 C-3.96108466 9.52562008 -0.19607202 12.4525905 7 15 C7.66 15.33 8.32 15.66 9 16 C9.33 15.34 9.66 14.68 10 14 C11.04607422 14.72896484 11.04607422 14.72896484 12.11328125 15.47265625 C16.1915971 17.63046612 19.81699922 17.41215165 24.35546875 17.49609375 C27 18 27 18 28.35546875 19.76953125 C29.36864671 23.27574103 29.12132582 26.36022551 29 30 C22.65176798 32.30844801 16.70518586 32.19818283 10 32 C10 32.66 10 33.32 10 34 C6.68455701 35.10514766 3.79589889 35.32107631 0.3125 35.5625 C-0.86699219 35.64628906 -2.04648437 35.73007812 -3.26171875 35.81640625 C-4.16535156 35.87699219 -5.06898438 35.93757813 -6 36 C-6.33951619 34.43883181 -6.67132544 32.87598662 -7 31.3125 C-7.185625 30.44238281 -7.37125 29.57226562 -7.5625 28.67578125 C-8 26 -8 26 -8 21 C-3.71 20.01 0.58 19.02 5 18 C0.38 18 -4.24 18 -9 18 C-10.32 12.72 -11.64 7.44 -13 2 C-7.78374381 0.50964109 -5.07210297 -0.24741966 0 0 Z " fill="#8CA605" transform="translate(327,330)"/>
<path d="M0 0 C3.4872168 2.3248112 3.91987142 3.59935708 4.75 7.75 C4.8325 8.8225 4.915 9.895 5 11 C4.37351562 11.26554687 3.74703125 11.53109375 3.1015625 11.8046875 C2.28429687 12.15789062 1.46703125 12.51109375 0.625 12.875 C-0.18710937 13.22304687 -0.99921875 13.57109375 -1.8359375 13.9296875 C-4.13802299 14.92446067 -4.13802299 14.92446067 -6 17 C-6.020625 18.27875 -6.04125 19.5575 -6.0625 20.875 C-6.25390625 23.03125 -6.25390625 23.03125 -7 25 C-9.25612896 26.49539183 -11.40913525 27.3442325 -13.96875 28.2109375 C-16.18496519 28.81010165 -16.18496519 28.81010165 -17 31 C-17.22467831 32.53668865 -17.40796805 34.07968054 -17.5625 35.625 C-17.64628906 36.44226563 -17.73007812 37.25953125 -17.81640625 38.1015625 C-17.87699219 38.72804687 -17.93757812 39.35453125 -18 40 C-26.1627907 40.62790698 -26.1627907 40.62790698 -29.5 38.125 C-31.87856859 34.75536116 -32.18395128 32.73102871 -32.25 28.625 C-32.27578125 27.66851562 -32.3015625 26.71203125 -32.328125 25.7265625 C-31.95439914 22.62107853 -31.06626291 21.29463934 -29 19 C-29 19.66 -29 20.32 -29 21 C-28.34 21 -27.68 21 -27 21 C-26.67 20.34 -26.34 19.68 -26 19 C-25.67 20.98 -25.34 22.96 -25 25 C-23.68 24.67 -22.36 24.34 -21 24 C-21.66 22.68 -22.32 21.36 -23 20 C-22.236875 19.896875 -21.47375 19.79375 -20.6875 19.6875 C-17.80299352 18.94960299 -16.64504011 18.46756016 -15 16 C-15.22757731 13.83700789 -15.22757731 13.83700789 -16 12 C-14.0625 11.4375 -14.0625 11.4375 -12 11 C-11.67 11.33 -11.34 11.66 -11 12 C-11.33 10.68 -11.66 9.36 -12 8 C-13.32 7.67 -14.64 7.34 -16 7 C-16 6.34 -16 5.68 -16 5 C-16.66 4.67 -17.32 4.34 -18 4 C-11.64539114 0.23671729 -7.29791221 -2.13904323 0 0 Z " fill="#FBBCA3" transform="translate(725,66)"/>
<path d="M0 0 C4.08799434 2.60145095 7.40901629 5.34995401 8.4921875 10.20703125 C8.61851562 11.06683594 8.74484375 11.92664063 8.875 12.8125 C9.01679688 13.66457031 9.15859375 14.51664062 9.3046875 15.39453125 C9 18 9 18 7.10546875 20.78515625 C2.82869813 23.83538133 -0.43461937 23.74216407 -5.5625 23.625 C-6.83770508 23.65400391 -6.83770508 23.65400391 -8.13867188 23.68359375 C-14.36826931 23.63473416 -14.36826931 23.63473416 -17.46484375 20.5234375 C-17.97144531 19.69070313 -18.47804688 18.85796875 -19 18 C-19.66 17.67 -20.32 17.34 -21 17 C-20.67 16.67 -20.34 16.34 -20 16 C-19.73035819 14.6078276 -19.4842647 13.21106024 -19.25 11.8125 C-18.20563784 6.91802661 -16.57122269 4.48619357 -13 1 C-8.63430004 -1.67342863 -4.82348858 -1.41867311 0 0 Z " fill="#EBEAE5" transform="translate(311,242)"/>
<path d="M0 0 C0.33 0 0.66 0 1 0 C1 44.55 1 89.1 1 135 C-21.77 135 -44.54 135 -68 135 C-68 125.43 -68 115.86 -68 106 C-72.95 106.99 -72.95 106.99 -78 108 C-77.67 109.5675 -77.34 111.135 -77 112.75 C-75.86966625 118.87131446 -75.80506166 124.79446279 -76 131 C-76.66 130.67 -77.32 130.34 -78 130 C-78.6328125 127.49609375 -78.6328125 127.49609375 -79.125 124.4375 C-79.29257812 123.42558594 -79.46015625 122.41367187 -79.6328125 121.37109375 C-79.75398438 120.58863281 -79.87515625 119.80617188 -80 119 C-81.65 119 -83.3 119 -85 119 C-84.67 118.01 -84.34 117.02 -84 116 C-83.01 116 -82.02 116 -81 116 C-81.020625 115.05125 -81.04125 114.1025 -81.0625 113.125 C-81 110 -81 110 -80 108 C-81.32 108 -82.64 108 -84 108 C-84.33 105.69 -84.66 103.38 -85 101 C-76.09 100.01 -76.09 100.01 -67 99 C-67 110.55 -67 122.1 -67 134 C-44.89 134 -22.78 134 0 134 C0 89.78 0 45.56 0 0 Z " fill="#5A68A1" transform="translate(423,265)"/>
<path d="M0 0 C0.99 0 1.98 0 3 0 C3.04898437 0.89203125 3.09796875 1.7840625 3.1484375 2.703125 C3.22320312 3.87359375 3.29796875 5.0440625 3.375 6.25 C3.44460938 7.41015625 3.51421875 8.5703125 3.5859375 9.765625 C3.96981172 12.76418968 4.62600388 14.38940737 6 17 C5.625 20.25 5.625 20.25 5 23 C4.34 22.01 3.68 21.02 3 20 C1.06218919 19.67738501 1.06218919 19.67738501 -1.1328125 19.92578125 C-2.34130859 20.00795898 -2.34130859 20.00795898 -3.57421875 20.09179688 C-4.41597656 20.16462891 -5.25773437 20.23746094 -6.125 20.3125 C-6.97449219 20.37373047 -7.82398438 20.43496094 -8.69921875 20.49804688 C-10.80053665 20.65151391 -12.90045124 20.82397722 -15 21 C-14.84273438 22.23621094 -14.68546875 23.47242188 -14.5234375 24.74609375 C-14.17588487 27.51614919 -13.88160254 30.28263914 -13.625 33.0625 C-13.16775608 37.00834889 -13.16775608 37.00834889 -11.5 40.4375 C-9.72250859 44.6590421 -9.2980136 48.46813802 -9 53 C-10.485 53.495 -10.485 53.495 -12 54 C-13.30874788 49.88679238 -14.22981872 45.87013369 -14.90625 41.60546875 C-15.64217068 37.0903102 -16.43657755 32.5922901 -17.2890625 28.09765625 C-17.50820313 26.94072266 -17.72734375 25.78378906 -17.953125 24.59179688 C-18.40633855 22.21110826 -18.86212633 19.83090846 -19.3203125 17.45117188 C-19.536875 16.30326172 -19.7534375 15.15535156 -19.9765625 13.97265625 C-20.17330566 12.94406494 -20.37004883 11.91547363 -20.57275391 10.85571289 C-20.97248989 8.18387761 -21.0810844 5.69590169 -21 3 C-20.01 3 -19.02 3 -18 3 C-17.03929566 5.88211302 -16.89418117 7.69850044 -16.9375 10.6875 C-16.94652344 11.49574219 -16.95554687 12.30398438 -16.96484375 13.13671875 C-16.97644531 13.75160156 -16.98804688 14.36648438 -17 15 C-15.07845236 14.0936096 -13.16293346 13.17443196 -11.25 12.25 C-10.18265625 11.73953125 -9.1153125 11.2290625 -8.015625 10.703125 C-5.1002315 9.05660743 -3.14644491 7.55143452 -1 5 C-0.20318682 2.35815459 -0.20318682 2.35815459 0 0 Z " fill="#FD2222" transform="translate(327,295)"/>
<path d="M0 0 C1.46670113 5.22512279 2.22577402 9.5814234 2 15 C-3.80766296 16.5056904 -8.9981863 17.21824777 -15 17 C-17.4021604 12.1956792 -17.61122229 7.26896105 -18 2 C-11.93184478 0.77100654 -6.20104812 -0.27560214 0 0 Z " fill="#FEF4F4" transform="translate(350,418)"/>
<path d="M0 0 C0 4.95 0 9.9 0 15 C-3.31544299 16.10514766 -6.20410111 16.32107631 -9.6875 16.5625 C-11.45673828 16.68818359 -11.45673828 16.68818359 -13.26171875 16.81640625 C-14.16535156 16.87699219 -15.06898438 16.93757813 -16 17 C-16.33951619 15.43883181 -16.67132544 13.87598662 -17 12.3125 C-17.185625 11.44238281 -17.37125 10.57226562 -17.5625 9.67578125 C-17.98972047 7.06287036 -18.07616201 4.64186962 -18 2 C-11.85221129 0.3722167 -6.35987804 -0.20190089 0 0 Z " fill="#FEF7F7" transform="translate(337,349)"/>
<path d="M0 0 C0.33 2.31 0.66 4.62 1 7 C2.32 7 3.64 7 5 7 C4.67 9.64 4.34 12.28 4 15 C-0.75 14.125 -0.75 14.125 -3 13 C-3 13.66 -3 14.32 -3 15 C-7.0597302 16.51059728 -9.54610667 17 -14 17 C-14.66 12.05 -15.32 7.1 -16 2 C-4.88392857 -0.14285714 -4.88392857 -0.14285714 0 0 Z " fill="#FBF5F0" transform="translate(338,366)"/>
<path d="M0 0 C1.03125 0.33 2.0625 0.66 3.125 1 C6.48426709 1.9715192 9.49106202 2.17116771 13 2 C13.33 2.99 13.66 3.98 14 5 C16.00016466 6.20882096 16.00016466 6.20882096 18 7 C14.38005115 12.62690202 14.38005115 12.62690202 10.87060547 13.57568359 C8.36914369 13.77166487 5.94498787 13.7696188 3.4375 13.6875 C2.58736328 13.70232422 1.73722656 13.71714844 0.86132812 13.73242188 C-5.35454809 13.64954353 -5.35454809 13.64954353 -8.46484375 10.51953125 C-8.97144531 9.68808594 -9.47804688 8.85664063 -10 8 C-10.66 7.67 -11.32 7.34 -12 7 C-11.071875 6.566875 -10.14375 6.13375 -9.1875 5.6875 C-6.48254066 4.2554627 -5.0458389 3.14813084 -3 1 C-2.34 1 -1.68 1 -1 1 C-0.67 0.67 -0.34 0.34 0 0 Z " fill="#68884A" transform="translate(302,252)"/>
<path d="M0 0 C3.4872168 2.3248112 3.91987142 3.59935708 4.75 7.75 C4.87375 9.35875 4.87375 9.35875 5 11 C4.39671875 11.26554687 3.7934375 11.53109375 3.171875 11.8046875 C2.37265625 12.15789062 1.5734375 12.51109375 0.75 12.875 C-0.43335938 13.39707031 -0.43335938 13.39707031 -1.640625 13.9296875 C-3.99231522 14.95405348 -3.99231522 14.95405348 -6.109375 16.1953125 C-8 17 -8 17 -11 16 C-11 13.69 -11 11.38 -11 9 C-13.475 8.01 -13.475 8.01 -16 7 C-16 6.34 -16 5.68 -16 5 C-16.66 4.67 -17.32 4.34 -18 4 C-11.64539114 0.23671729 -7.29791221 -2.13904323 0 0 Z " fill="#FBBEA4" transform="translate(725,66)"/>
<path d="M0 0 C0 0.66 0 1.32 0 2 C-1.32 2 -2.64 2 -4 2 C-4.12375 2.94875 -4.2475 3.8975 -4.375 4.875 C-5 8 -5 8 -7 10 C-7.16687448 12.58354218 -7.16687448 12.58354218 -7 15 C-10.67410785 16.17571451 -14.16929183 16.07366746 -18 16 C-19.26305335 10.92523206 -20.27036084 6.27203646 -20 1 C-13.32021515 -0.94321014 -6.7536933 -2.2512311 0 0 Z " fill="#FDF5F3" transform="translate(349,402)"/>
<path d="M0 0 C0 0.33 0 0.66 0 1 C-1.5823006 1.33820166 -3.16589375 1.67035939 -4.75 2 C-6.07257813 2.2784375 -6.07257813 2.2784375 -7.421875 2.5625 C-10 3 -10 3 -14 3 C-13.855625 3.58007812 -13.71125 4.16015625 -13.5625 4.7578125 C-12.49110572 9.26659675 -11.76054064 13.33054247 -12 18 C-11.34 17.67 -10.68 17.34 -10 17 C-7.45384991 16.76827173 -4.92603775 16.58105471 -2.375 16.4375 C-1.66859375 16.39431641 -0.9621875 16.35113281 -0.234375 16.30664062 C1.51018537 16.20055249 3.25506697 16.09977111 5 16 C5 16.66 5 17.32 5 18 C-0.45461169 19.38529821 -5.36718401 20.2396943 -11 20 C-10.67 20.99 -10.34 21.98 -10 23 C-8.8134874 27.08594833 -8.85134821 30.76342394 -9 35 C-5.37 35 -1.74 35 2 35 C1.67 35.66 1.34 36.32 1 37 C-1.97 37 -4.94 37 -8 37 C-8 38.65 -8 40.3 -8 42 C-8.66 42 -9.32 42 -10 42 C-10.84723327 38.11030605 -11.68276763 34.21828144 -12.50854492 30.32397461 C-12.92627919 28.36511709 -13.35267009 26.40811191 -13.77929688 24.45117188 C-15.50186044 16.29493718 -16.59873254 8.3278431 -17 0 C-4.8125 -1.20535714 -4.8125 -1.20535714 0 0 Z " fill="#FC201D" transform="translate(333,348)"/>
<path d="M0 0 C0 2.31 0 4.62 0 7 C-3.63 7.66 -7.26 8.32 -11 9 C-10.67 10.5675 -10.34 12.135 -10 13.75 C-8.86966625 19.87131446 -8.80506166 25.79446279 -9 32 C-9.66 31.67 -10.32 31.34 -11 31 C-11.6328125 28.49609375 -11.6328125 28.49609375 -12.125 25.4375 C-12.29257812 24.42558594 -12.46015625 23.41367187 -12.6328125 22.37109375 C-12.75398438 21.58863281 -12.87515625 20.80617188 -13 20 C-14.65 20 -16.3 20 -18 20 C-17.505 18.515 -17.505 18.515 -17 17 C-16.01 17 -15.02 17 -14 17 C-14.020625 16.05125 -14.04125 15.1025 -14.0625 14.125 C-14 11 -14 11 -13 9 C-14.32 9 -15.64 9 -17 9 C-17.33 6.69 -17.66 4.38 -18 2 C-15.7505194 1.66317938 -13.50039296 1.33066999 -11.25 1 C-9.99703125 0.814375 -8.7440625 0.62875 -7.453125 0.4375 C-4 0 -4 0 0 0 Z " fill="#88A807" transform="translate(356,364)"/>
<path d="M0 0 C0.66 0.33 1.32 0.66 2 1 C-3.94 6.445 -3.94 6.445 -10 12 C-9.67 12.66 -9.34 13.32 -9 14 C-9.33 14.99 -9.66 15.98 -10 17 C-9.01 16.67 -8.02 16.34 -7 16 C-5.35 17.98 -3.7 19.96 -2 22 C-5.06117568 24.62386487 -5.73173127 25 -10 25 C-9.2236068 28.0745356 -9.2236068 28.0745356 -7 30 C-8.98 30 -10.96 30 -13 30 C-13.66 28.68 -14.32 27.36 -15 26 C-15.99 26 -16.98 26 -18 26 C-18.33 26.66 -18.66 27.32 -19 28 C-19.66 28 -20.32 28 -21 28 C-22.485 33.94 -22.485 33.94 -24 40 C-24.33 40 -24.66 40 -25 40 C-24.5321874 33.56757675 -22.95306284 28.7156055 -20 23 C-19.40058594 21.80890625 -19.40058594 21.80890625 -18.7890625 20.59375 C-14.3268618 12.44314063 -7.74886975 5.16591316 0 0 Z " fill="#FCF5F2" transform="translate(713,61)"/>
<path d="M0 0 C1.98 0.495 1.98 0.495 4 1 C3.01 1 2.02 1 1 1 C1.33 3.97 1.66 6.94 2 10 C4.97 10.495 4.97 10.495 8 11 C8.33 9.35 8.66 7.7 9 6 C10.32 6 11.64 6 13 6 C13.33 8.64 13.66 11.28 14 14 C16.31 14 18.62 14 21 14 C21 14.66 21 15.32 21 16 C15.39 16.66 9.78 17.32 4 18 C4.350625 19.340625 4.70125 20.68125 5.0625 22.0625 C6.02374239 26.34439793 5.83389467 29.66374771 5 34 C4.96454703 35.66628955 4.94951812 37.33409803 5 39 C2.27995236 34.11561337 1.72970939 28.89108798 0.8125 23.4375 C0.62236328 22.40302734 0.43222656 21.36855469 0.23632812 20.30273438 C-0.95120029 13.30464258 -1.00788049 7.02554552 0 0 Z " fill="#FE2222" transform="translate(325,385)"/>
<path d="M0 0 C0.99 0 1.98 0 3 0 C3.3403125 1.60875 3.3403125 1.60875 3.6875 3.25 C5.22206322 7.63446635 6.04068362 8.65673112 10 11 C16.90048908 14.11634991 23.44700657 15.67232133 31 16 C31 18.31 31 20.62 31 23 C30.34 22.01 29.68 21.02 29 20 C26.27909776 19.5267359 26.27909776 19.5267359 23.1875 19.5 C18.43593059 19.3583383 16.01788941 18.45575583 12 16 C11.01 16.33 10.02 16.66 9 17 C2.45888106 15.30553871 -2.41399976 11.7094749 -6 6 C-6 5.34 -6 4.68 -6 4 C-4.02 3.34 -2.04 2.68 0 2 C0 1.34 0 0.68 0 0 Z " fill="#FACCAA" transform="translate(325,329)"/>
<path d="M0 0 C2.0625 0.4375 2.0625 0.4375 4 1 C4 2.32 4 3.64 4 5 C5.32 5.33 6.64 5.66 8 6 C8 8.64 8 11.28 8 14 C4.52674819 15.1577506 1.63932552 15.06866652 -2 15 C-2 14.01 -2 13.02 -2 12 C-3.32 12.33 -4.64 12.66 -6 13 C-6.66 11.68 -7.32 10.36 -8 9 C-7.236875 8.896875 -6.47375 8.79375 -5.6875 8.6875 C-2.80299352 7.94960299 -1.64504011 7.46756016 0 5 C-0.3185177 2.89179203 -0.3185177 2.89179203 -1 1 C-0.67 0.67 -0.34 0.34 0 0 Z " fill="#EF9987" transform="translate(710,77)"/>
<path d="M0 0 C0.33 0 0.66 0 1 0 C1.33 4.29 1.66 8.58 2 13 C-11.25892857 15.14285714 -11.25892857 15.14285714 -16 15 C-16 13.68 -16 12.36 -16 11 C-15.26394531 10.62488281 -14.52789062 10.24976563 -13.76953125 9.86328125 C-8.40874754 7.05187949 -4.01042027 4.54514298 0 0 Z " fill="#F8EEF1" transform="translate(327,299)"/>
<path d="M0 0 C3.3086507 2.12566945 6.22368442 4.44736883 8 8 C8.13415472 10.6723621 8.04318541 13.32250488 8 16 C6.68 15.67 5.36 15.34 4 15 C4.66 14.67 5.32 14.34 6 14 C6 12.02 6 10.04 6 8 C4.35 8.33 2.7 8.66 1 9 C1.66 7.35 2.32 5.7 3 4 C2.01 4 1.02 4 0 4 C-0.33 5.32 -0.66 6.64 -1 8 C-1.99 7.67 -2.98 7.34 -4 7 C-4 5.68 -4 4.36 -4 3 C-6.85723728 2.76189689 -9.1987836 2.57687171 -12 3 C-15.69984527 6.22550613 -16.55278157 9.19240183 -17 14 C-16.34 14.33 -15.68 14.66 -15 15 C-16.32 15.33 -17.64 15.66 -19 16 C-19.45763495 10.27956317 -18.71653644 7.40116157 -15 3 C-10.17772492 -1.37369135 -6.05911516 -2.02670577 0 0 Z " fill="#D5D6D6" transform="translate(311,242)"/>
<path d="M0 0 C2.36092149 2.36092149 2.31949234 2.96250484 2.375 6.1875 C2.261835 11.20717589 0.92143695 13.94244868 -2 18 C-6.38251322 21.98410292 -10.21662672 22.10912025 -16 22 C-15.67 22.66 -15.34 23.32 -15 24 C-14.42968563 28.67470792 -14.56158249 32.12316498 -16.6875 36.375 C-21.31752312 41.63070192 -25.21419648 42.38237083 -31.98828125 42.88671875 C-32.65214844 42.92410156 -33.31601562 42.96148437 -34 43 C-34 42.34 -34 41.68 -34 41 C-33.00419922 40.85304688 -33.00419922 40.85304688 -31.98828125 40.703125 C-26.65478393 39.79993421 -22.90099618 39.02683477 -19 35 C-17.55792059 32.11584117 -17.90605113 29.58278472 -17.9375 26.375 C-17.94652344 25.18648437 -17.95554687 23.99796875 -17.96484375 22.7734375 C-17.97644531 21.85820313 -17.98804688 20.94296875 -18 20 C-17.32453125 19.95101562 -16.6490625 19.90203125 -15.953125 19.8515625 C-15.06109375 19.77679688 -14.1690625 19.70203125 -13.25 19.625 C-12.36828125 19.55539063 -11.4865625 19.48578125 -10.578125 19.4140625 C-7.96328483 18.99410332 -6.23586332 18.40048582 -4 17 C-0.38601805 11.77980385 -0.31730905 6.14923053 0 0 Z " fill="#E3E4E6" transform="translate(739,73)"/>
<path d="M0 0 C5.28 0.66 10.56 1.32 16 2 C16 3.65 16 5.3 16 7 C16.66 7.33 17.32 7.66 18 8 C17 9 17 9 13.98046875 9.1328125 C12.72878906 9.13023437 11.47710937 9.12765625 10.1875 9.125 C8.32158203 9.12886719 8.32158203 9.12886719 6.41796875 9.1328125 C3.71213998 9.02767173 1.55665645 8.81143252 -1 8 C-0.67 5.36 -0.34 2.72 0 0 Z " fill="#572B10" transform="translate(295,264)"/>
<path d="M0 0 C0.350625 0.515625 0.70125 1.03125 1.0625 1.5625 C3.09468727 3.40146383 3.09468727 3.40146383 6.6875 2.6875 C7.780625 2.460625 8.87375 2.23375 10 2 C9.49396008 4.16874252 9.00016187 5.99967627 8 8 C4.87517438 8.08687496 1.75065754 8.14034568 -1.375 8.1875 C-2.26445312 8.21263672 -3.15390625 8.23777344 -4.0703125 8.26367188 C-5.34648437 8.27817383 -5.34648437 8.27817383 -6.6484375 8.29296875 C-7.82672119 8.31653442 -7.82672119 8.31653442 -9.02880859 8.34057617 C-9.67930176 8.22818604 -10.32979492 8.1157959 -11 8 C-13 5 -13 5 -13 2 C-9.04 2.33 -5.08 2.66 -1 3 C-0.67 2.01 -0.34 1.02 0 0 Z " fill="#C2C8C9" transform="translate(307,257)"/>
<path d="M0 0 C0.66 1.65 1.32 3.3 2 5 C2.66 4.67 3.32 4.34 4 4 C4.33 7.3 4.66 10.6 5 14 C4.01 13.67 3.02 13.34 2 13 C1.34 9.7 0.68 6.4 0 3 C-8.415 3.495 -8.415 3.495 -17 4 C-16.67 8.29 -16.34 12.58 -16 17 C-16.99 16.67 -17.98 16.34 -19 16 C-20.69262664 11.619084 -21.30153263 6.67375574 -21 2 C-17.83244617 0.94414872 -15.22696596 0.98303146 -11.91796875 1.03125 C-7.87123823 0.96531549 -4.15399736 -0.09440903 0 0 Z " fill="#FF1919" transform="translate(353,433)"/>
<path d="M0 0 C0.66 0.66 1.32 1.32 2 2 C1.31035156 2.02578125 0.62070312 2.0515625 -0.08984375 2.078125 C-14.6083278 2.9544121 -24.39862008 10.48792008 -34 21 C-35.03707354 22.30470542 -36.06281663 23.62178916 -37 25 C-37.99 24.67 -38.98 24.34 -40 24 C-16.309879 -3.02295171 -16.309879 -3.02295171 0 0 Z " fill="#CE373E" transform="translate(719,41)"/>
<path d="M0 0 C1.04800781 0.42152344 2.09601562 0.84304687 3.17578125 1.27734375 C4.55466913 1.83077494 5.93357639 2.38415784 7.3125 2.9375 C8.00279297 3.21529297 8.69308594 3.49308594 9.40429688 3.77929688 C15.18094491 6.09553739 19.99604459 7.23264954 26.1875 7.5625 C26.93708984 7.60568359 27.68667969 7.64886719 28.45898438 7.69335938 C30.30578375 7.79922685 32.15286834 7.9000976 34 8 C34 8.99 34 9.98 34 11 C21.47716457 11.60839686 10.04159803 10.45911123 0 2 C0 1.34 0 0.68 0 0 Z " fill="#CE3940" transform="translate(714,136)"/>
<path d="M0 0 C2.375 2.5 2.375 2.5 4 5 C2.35 5 0.7 5 -1 5 C-1.33 6.98 -1.66 8.96 -2 11 C-4.9375 10.625 -4.9375 10.625 -8 10 C-9.4783226 7.04335481 -9.06032783 4.25770263 -9 1 C-5.65521839 -0.1149272 -3.50226752 -0.42884908 0 0 Z " fill="#FAF8F1" transform="translate(335,385)"/>
<path d="M0 0 C1.32 0 2.64 0 4 0 C4.19397476 1.97854258 4.38001321 3.9578648 4.5625 5.9375 C4.66691406 7.03964844 4.77132813 8.14179688 4.87890625 9.27734375 C4.91886719 10.17582031 4.95882813 11.07429688 5 12 C4 13 4 13 0.4375 13.0625 C-0.696875 13.041875 -1.83125 13.02125 -3 13 C-3.6875 10.8125 -3.6875 10.8125 -4 8 C-2.625 5.375 -2.625 5.375 -1 3 C-0.67 2.01 -0.34 1.02 0 0 Z " fill="#90A80B" transform="translate(345,404)"/>
<path d="M0 0 C0.66 0 1.32 0 2 0 C3.83717315 7.41430591 4.23576736 14.37685526 4 22 C3.34 21.67 2.68 21.34 2 21 C1.3671875 18.49609375 1.3671875 18.49609375 0.875 15.4375 C0.70742188 14.42558594 0.53984375 13.41367187 0.3671875 12.37109375 C0.24601562 11.58863281 0.12484375 10.80617188 0 10 C-1.65 10 -3.3 10 -5 10 C-4.67 9.01 -4.34 8.02 -4 7 C-3.01 7 -2.02 7 -1 7 C-1.020625 6.030625 -1.04125 5.06125 -1.0625 4.0625 C-1 1 -1 1 0 0 Z " fill="#FE3D3D" transform="translate(343,374)"/>
<path d="M0 0 C0 0.66 0 1.32 0 2 C0.66 2 1.32 2 2 2 C1.67 2.99 1.34 3.98 1 5 C1.165 5.639375 1.33 6.27875 1.5 6.9375 C2.07702481 9.31772734 1.74022853 10.69706679 1 13 C-1.97 12.505 -1.97 12.505 -5 12 C-5.33 8.37 -5.66 4.74 -6 1 C-3 0 -3 0 0 0 Z " fill="#E8ECCC" transform="translate(351,372)"/>
<path d="M0 0 C0.598125 0.226875 1.19625 0.45375 1.8125 0.6875 C1.8125 1.3475 1.8125 2.0075 1.8125 2.6875 C2.616875 2.831875 3.42125 2.97625 4.25 3.125 C6.8125 3.6875 6.8125 3.6875 7.8125 4.6875 C7.85313832 6.35367115 7.855221 8.02138095 7.8125 9.6875 C7.1525 9.0275 6.4925 8.3675 5.8125 7.6875 C4.8225 7.6875 3.8325 7.6875 2.8125 7.6875 C1.8225 9.1725 1.8225 9.1725 0.8125 10.6875 C0.35875 10.1925 -0.095 9.6975 -0.5625 9.1875 C-2.06385519 7.46140663 -2.06385519 7.46140663 -4.1875 7.6875 C-4.875 5.375 -4.875 5.375 -5.1875 2.6875 C-3.60587179 0.1901923 -2.97595617 -0.4251366 0 0 Z " fill="#F7F0ED" transform="translate(707.1875,70.3125)"/>
<path d="M0 0 C1.98 0 3.96 0 6 0 C6.37125 1.2065625 6.37125 1.2065625 6.75 2.4375 C7.36875 3.7059375 7.36875 3.7059375 8 5 C9.90178785 5.60061233 9.90178785 5.60061233 12 6 C14.25 7.9375 14.25 7.9375 16 10 C16 10.66 16 11.32 16 12 C10.06143642 11.64368618 7.2389315 10.14259215 3 6 C0 2.5 0 2.5 0 0 Z " fill="#F9F8EF" transform="translate(319,333)"/>
<path d="M0 0 C2.31 0.33 4.62 0.66 7 1 C6.01 1.495 6.01 1.495 5 2 C5 2.99 5 3.98 5 5 C5.99 5 6.98 5 8 5 C8.33 4.01 8.66 3.02 9 2 C9.99 2 10.98 2 12 2 C11.34 3.65 10.68 5.3 10 7 C11.65 6.67 13.3 6.34 15 6 C15 7.98 15 9.96 15 12 C14.34 12 13.68 12 13 12 C13 11.34 13 10.68 13 10 C12.01 10.33 11.02 10.66 10 11 C9.34 10.01 8.68 9.02 8 8 C7.01 8 6.02 8 5 8 C5 7.34 5 6.68 5 6 C4.01 6 3.02 6 2 6 C2 5.01 2 4.02 2 3 C1.01 2.67 0.02 2.34 -1 2 C-0.67 1.34 -0.34 0.68 0 0 Z " fill="#F0F1F0" transform="translate(302,244)"/>
<path d="M0 0 C-0.33 1.32 -0.66 2.64 -1 4 C-6.83799592 5.69832609 -11.93107371 6.25287193 -18 6 C-18.33 4.68 -18.66 3.36 -19 2 C-16.20849551 1.66525856 -13.41681356 1.33214502 -10.625 1 C-9.43390625 0.85691406 -9.43390625 0.85691406 -8.21875 0.7109375 C-2.2265625 0 -2.2265625 0 0 0 Z " fill="#1C220F" transform="translate(356,360)"/>
<path d="M0 0 C1.32 0 2.64 0 4 0 C4.87890625 6.15234375 4.87890625 6.15234375 5 8 C4 9 4 9 1.93359375 9.09765625 C1.10988281 9.08605469 0.28617187 9.07445312 -0.5625 9.0625 C-1.38878906 9.05347656 -2.21507812 9.04445313 -3.06640625 9.03515625 C-3.70449219 9.02355469 -4.34257812 9.01195312 -5 9 C-5.66 7.35 -6.32 5.7 -7 4 C-4.03 4.495 -4.03 4.495 -1 5 C-0.67 3.35 -0.34 1.7 0 0 Z " fill="#8CAA08" transform="translate(334,391)"/>
<path d="M0 0 C4.10601848 1.77305344 6.66278175 4.19119988 9 8 C9.25 11.8125 9.25 11.8125 9 15 C8.67 15 8.34 15 8 15 C7.82984375 14.38511719 7.6596875 13.77023438 7.484375 13.13671875 C7.12085938 11.92435547 7.12085938 11.92435547 6.75 10.6875 C6.51796875 9.88699219 6.2859375 9.08648437 6.046875 8.26171875 C4.76400815 5.49015193 3.65256317 4.49440179 1 3 C-1.57873609 2.43015552 -1.57873609 2.43015552 -4.25 2.3125 C-5.14203125 2.24675781 -6.0340625 2.18101563 -6.953125 2.11328125 C-7.62859375 2.07589844 -8.3040625 2.03851563 -9 2 C-9.28617188 2.61359375 -9.57234375 3.2271875 -9.8671875 3.859375 C-11.20824575 6.39351266 -12.91456214 8.05359133 -15 10 C-15.66 9.67 -16.32 9.34 -17 9 C-15.87895467 7.68412059 -14.75303035 6.37239647 -13.625 5.0625 C-12.99851562 4.33160156 -12.37203125 3.60070312 -11.7265625 2.84765625 C-8.38782593 -0.7252451 -4.63143465 -0.49080714 0 0 Z " fill="#E7E8E9" transform="translate(702,119)"/>
<path d="M0 0 C1.0828125 1.11375 1.0828125 1.11375 2.1875 2.25 C5.21356962 5.20882363 8.19117081 8.0955854 12 10 C12 10.66 12 11.32 12 12 C8.7 12 5.4 12 2 12 C1.34 8.04 0.68 4.08 0 0 Z " fill="#FAEFE9" transform="translate(316,336)"/>
<path d="M0 0 C3.29322227 1.64661113 3.82844345 4.89615151 5.11328125 8.2109375 C6.37078618 12.16626138 6.7332246 15.86498133 7 20 C6.01 20.33 5.02 20.66 4 21 C1.72005699 14.16017096 0.92951016 7.12954067 0 0 Z " fill="#FE1C1A" transform="translate(311,328)"/>
<path d="M0 0 C0.99 0.33 1.98 0.66 3 1 C2.34 2.32 1.68 3.64 1 5 C2.65 5.33 4.3 5.66 6 6 C6.042721 7.66611905 6.04063832 9.33382885 6 11 C5 12 5 12 2.5 12.125 C0 12 0 12 -1 11 C-0.91015699 9.14227838 -0.75388139 7.28752015 -0.5625 5.4375 C-0.46066406 4.42558594 -0.35882813 3.41367187 -0.25390625 2.37109375 C-0.17011719 1.58863281 -0.08632813 0.80617188 0 0 Z " fill="#EBE5E4" transform="translate(368,333)"/>
<path d="M0 0 C0.33 0.99 0.66 1.98 1 3 C1.99 2.67 2.98 2.34 4 2 C5.65 3.98 7.3 5.96 9 8 C7.68 8.99 6.36 9.98 5 11 C4.01 10.34 3.02 9.68 2 9 C2.33 8.67 2.66 8.34 3 8 C2.01 7.67 1.02 7.34 0 7 C0 6.34 0 5.68 0 5 C-1.32 4.67 -2.64 4.34 -4 4 C-2.68 2.68 -1.36 1.36 0 0 Z " fill="#F6C1AA" transform="translate(702,75)"/>
<path d="M0 0 C2 2 2 2 2 5 C3.32 5.33 4.64 5.66 6 6 C5.01 6 4.02 6 3 6 C3.144375 6.66386719 3.28875 7.32773437 3.4375 8.01171875 C3.7159375 9.33623047 3.7159375 9.33623047 4 10.6875 C4.185625 11.55761719 4.37125 12.42773438 4.5625 13.32421875 C4.98972047 15.93712964 5.07616201 18.35813038 5 21 C4.01 21 3.02 21 2 21 C1.66280953 18.43795456 1.33012847 15.87545682 1 13.3125 C0.90460938 12.59126953 0.80921875 11.87003906 0.7109375 11.12695312 C0.23316265 7.39007129 -0.11919794 3.77708469 0 0 Z " fill="#FE1212" transform="translate(329,414)"/>
<path d="M0 0 C7.425 0.99 7.425 0.99 15 2 C15 2.99 15 3.98 15 5 C10.48382401 5.07654536 6.40914783 5.10228696 2 4 C2 4.99 2 5.98 2 7 C1.01 7 0.02 7 -1 7 C-0.67 4.69 -0.34 2.38 0 0 Z " fill="#3E1E09" transform="translate(295,264)"/>
<path d="M0 0 C3.3 0 6.6 0 10 0 C10.33 0.99 10.66 1.98 11 3 C13.00016466 4.20882096 13.00016466 4.20882096 15 5 C14.01 5.66 13.02 6.32 12 7 C12 6.34 12 5.68 12 5 C9.36 5.66 6.72 6.32 4 7 C1.125 2.25 1.125 2.25 0 0 Z " fill="#9A9C92" transform="translate(305,254)"/>
<path d="M0 0 C3.38969995 0.067794 6.02480943 0.27230899 8.80078125 2.34375 C11.86465081 5.56117865 13.36697313 7.92639871 13.375 12.4375 C13.25125 13.613125 13.1275 14.78875 13 16 C11.68 15.67 10.36 15.34 9 15 C9.66 14.67 10.32 14.34 11 14 C11 12.02 11 10.04 11 8 C9.35 8.33 7.7 8.66 6 9 C6.33 7.35 6.66 5.7 7 4 C4.69 3.01 2.38 2.02 0 1 C0 0.67 0 0.34 0 0 Z " fill="#D5D5D3" transform="translate(306,242)"/>
<path d="M0 0 C1.19571705 2.33593669 2.23624486 4.60926307 3.1875 7.0625 C5.62837637 11.01840308 7.67045609 11.52958886 12 13 C12 13.66 12 14.32 12 15 C5.62149533 15.49065421 5.62149533 15.49065421 2.625 13.125 C0.21291401 9.9707337 -0.11838232 8.28676257 -0.0625 4.375 C-0.05347656 3.55773437 -0.04445313 2.74046875 -0.03515625 1.8984375 C-0.02355469 1.27195312 -0.01195312 0.64546875 0 0 Z " fill="#F6A08D" transform="translate(693,91)"/>
<path d="M0 0 C1.32 0.33 2.64 0.66 4 1 C4 3.31 4 5.62 4 8 C3.01 8 2.02 8 1 8 C1 8.66 1 9.32 1 10 C1.66 10 2.32 10 3 10 C3 10.66 3 11.32 3 12 C2.01 12 1.02 12 0 12 C0 12.66 0 13.32 0 14 C0.66 14 1.32 14 2 14 C2 14.66 2 15.32 2 16 C1.01 16 0.02 16 -1 16 C-1 15.01 -1 14.02 -1 13 C-1.66 12.67 -2.32 12.34 -3 12 C-2.34 12 -1.68 12 -1 12 C-0.67 8.04 -0.34 4.08 0 0 Z " fill="#C4B15E" transform="translate(347,386)"/>
<path d="M0 0 C0.66 0.33 1.32 0.66 2 1 C-3.94 6.445 -3.94 6.445 -10 12 C-9.67 12.66 -9.34 13.32 -9 14 C-11.64 16.31 -14.28 18.62 -17 21 C-17.33 20.34 -17.66 19.68 -18 19 C-12.78851208 11.9644913 -7.35096827 4.90064551 0 0 Z " fill="#E6E5E6" transform="translate(713,61)"/>
<path d="M0 0 C0.66 0.66 1.32 1.32 2 2 C4.9093558 2.14517744 7.719946 2.18630796 10.625 2.125 C11.82769531 2.11146484 11.82769531 2.11146484 13.0546875 2.09765625 C15.03658523 2.07406223 17.01832981 2.03819065 19 2 C19 2.66 19 3.32 19 4 C17.78441406 4.12117188 16.56882812 4.24234375 15.31640625 4.3671875 C13.73171883 4.53597078 12.1470861 4.70526816 10.5625 4.875 C9.76005859 4.95363281 8.95761719 5.03226562 8.13085938 5.11328125 C6.07829006 5.33845763 4.03706991 5.66222587 2 6 C1.67 6.66 1.34 7.32 1 8 C0.67 5.36 0.34 2.72 0 0 Z " fill="#F53426" transform="translate(327,397)"/>
<path d="M0 0 C0.99 0.495 0.99 0.495 2 1 C2 2.32 2 3.64 2 5 C5.63 5 9.26 5 13 5 C12.67 5.66 12.34 6.32 12 7 C9.03 7 6.06 7 3 7 C3 8.65 3 10.3 3 12 C2.34 12 1.68 12 1 12 C-0.3271261 8.0186217 -0.06915913 4.14954773 0 0 Z " fill="#FF1212" transform="translate(322,378)"/>
<path d="M0 0 C0.99 0 1.98 0 3 0 C3.226875 1.0725 3.45375 2.145 3.6875 3.25 C5.13026545 7.37218701 6.41910075 8.64414523 10 11 C9.67 11.99 9.34 12.98 9 14 C8.01 13.34 7.02 12.68 6 12 C6 11.34 6 10.68 6 10 C4.35 9.67 2.7 9.34 1 9 C-1.125 3.375 -1.125 3.375 0 0 Z " fill="#FECEB4" transform="translate(325,329)"/>
<path d="M0 0 C-1.1875 1.5 -1.1875 1.5 -3 3 C-5.6875 3.1875 -5.6875 3.1875 -8 3 C-7.67 4.65 -7.34 6.3 -7 8 C-7.99 8.495 -7.99 8.495 -9 9 C-10.98 5.535 -10.98 5.535 -13 2 C-8.46298506 0.54815522 -4.81938524 -0.23509196 0 0 Z " fill="#98A918" transform="translate(327,330)"/>
<path d="M0 0 C0.99 0 1.98 0 3 0 C3.33531415 1.95799514 3.66819143 3.91640774 4 5.875 C4.185625 6.96554687 4.37125 8.05609375 4.5625 9.1796875 C5 12 5 12 5 14 C4.01 14 3.02 14 2 14 C-0.29612756 4.58997722 -0.29612756 4.58997722 0 0 Z " fill="#D9111D" transform="translate(306,298)"/>
<path d="M0 0 C0.66 0 1.32 0 2 0 C0.89391488 2.25491749 -0.25723118 4.46533598 -1.47265625 6.6640625 C-4.9754219 13.18764079 -6.96708852 18.56200554 -7 26 C-7.33 26 -7.66 26 -8 26 C-8.63925662 16.65975043 -7.17148216 9.66394435 -1.875 1.875 C-0.946875 0.946875 -0.946875 0.946875 0 0 Z " fill="#CE3D44" transform="translate(681,68)"/>
<path d="M0 0 C1.65 0 3.3 0 5 0 C5 0.66 5 1.32 5 2 C5.99 2 6.98 2 8 2 C8 2.66 8 3.32 8 4 C9.32 3.67 10.64 3.34 12 3 C12.33 3.99 12.66 4.98 13 6 C8.9292341 7.16307597 6.77702294 6.88851147 3 5 C2.01 4.34 1.02 3.68 0 3 C0 2.01 0 1.02 0 0 Z " fill="#DCDAD2" transform="translate(299,248)"/>
<path d="M0 0 C0.66 0.33 1.32 0.66 2 1 C-3.61 6.61 -9.22 12.22 -15 18 C-15 12.50089132 -9.68936771 8.76735434 -6 5 C-4.05347234 3.22256464 -2.09090037 1.6083849 0 0 Z " fill="#4E5D9A" transform="translate(60,187)"/>
<path d="M0 0 C0.45890625 0.39832031 0.9178125 0.79664063 1.390625 1.20703125 C4.52271585 3.91142062 7.63877459 6.57991771 11 9 C10.67 9.66 10.34 10.32 10 11 C5.05770013 9.73569073 2.17423736 8.03993846 -1 4 C-0.62890625 1.8359375 -0.62890625 1.8359375 0 0 Z " fill="#95B31C" transform="translate(320,336)"/>
<path d="M0 0 C1.98 0 3.96 0 6 0 C6.66 1.65 7.32 3.3 8 5 C8.66 4.67 9.32 4.34 10 4 C10.33 7.3 10.66 10.6 11 14 C10.01 13.67 9.02 13.34 8 13 C7.34 9.7 6.68 6.4 6 3 C5.01 2.67 4.02 2.34 3 2 C2.01 1.34 1.02 0.68 0 0 Z " fill="#FF4D4D" transform="translate(347,433)"/>
<path d="M0 0 C7.26315789 0.48421053 7.26315789 0.48421053 10.5 2.75 C12.26933948 5.40400921 12.3475632 6.87193116 12 10 C11.34644531 9.38511719 11.34644531 9.38511719 10.6796875 8.7578125 C6.95637366 5.38909998 3.99214035 3.21759521 -1 2 C-0.67 1.34 -0.34 0.68 0 0 Z " fill="#F6A491" transform="translate(717,65)"/>
<path d="M0 0 C1.98 0 3.96 0 6 0 C6.33 0.66 6.66 1.32 7 2 C9.01669827 3.13350534 9.01669827 3.13350534 11 4 C10.01 4.495 10.01 4.495 9 5 C8.34786708 7.02463255 8.34786708 7.02463255 8 9 C7.01 8.67 6.02 8.34 5 8 C5 6.68 5 5.36 5 4 C3.35 3.67 1.7 3.34 0 3 C0 2.01 0 1.02 0 0 Z " fill="#E4E1DA" transform="translate(302,241)"/>
<path d="M0 0 C2.31 0.33 4.62 0.66 7 1 C6.01 1.495 6.01 1.495 5 2 C5 2.99 5 3.98 5 5 C5.99 5.33 6.98 5.66 8 6 C8 6.66 8 7.32 8 8 C7.01 8 6.02 8 5 8 C5 7.34 5 6.68 5 6 C4.01 6 3.02 6 2 6 C2 5.01 2 4.02 2 3 C1.01 2.67 0.02 2.34 -1 2 C-0.67 1.34 -0.34 0.68 0 0 Z " fill="#F8F8F7" transform="translate(302,244)"/>
<path d="M0 0 C0.66 0 1.32 0 2 0 C2 3.3 2 6.6 2 10 C-0.31 9.67 -2.62 9.34 -5 9 C-4.67 8.34 -4.34 7.68 -4 7 C-3.01 7 -2.02 7 -1 7 C-1.020625 6.030625 -1.04125 5.06125 -1.0625 4.0625 C-1 1 -1 1 0 0 Z " fill="#FE2423" transform="translate(343,374)"/>
<path d="M0 0 C3.93846154 3.32307692 3.93846154 3.32307692 4.25 6.75 C4.1675 7.4925 4.085 8.235 4 9 C3.01 9 2.02 9 1 9 C0.67 9.66 0.34 10.32 0 11 C-1.125 3.375 -1.125 3.375 0 0 Z " fill="#FECAB0" transform="translate(313,321)"/>
<path d="M0 0 C1.07894531 0.03480469 2.15789063 0.06960937 3.26953125 0.10546875 C4.35621094 0.13253906 5.44289063 0.15960938 6.5625 0.1875 C7.80966797 0.23970703 7.80966797 0.23970703 9.08203125 0.29296875 C9.08203125 1.28296875 9.08203125 2.27296875 9.08203125 3.29296875 C4.13203125 3.29296875 -0.81796875 3.29296875 -5.91796875 3.29296875 C-2.91796875 0.29296875 -2.91796875 0.29296875 0 0 Z " fill="#D0464D" transform="translate(738.91796875,143.70703125)"/>
<path d="M0 0 C0.79921875 0.00902344 1.5984375 0.01804687 2.421875 0.02734375 C3.02515625 0.03894531 3.6284375 0.05054688 4.25 0.0625 C4.58 0.7225 4.91 1.3825 5.25 2.0625 C3.50215171 2.42713732 1.75159498 2.7788078 0 3.125 C-1.46179688 3.42083984 -1.46179688 3.42083984 -2.953125 3.72265625 C-5.618119 4.04647535 -7.23871723 3.91753199 -9.75 3.0625 C-8.75 1.0625 -8.75 1.0625 -6.984375 0.44140625 C-4.60849677 0.03850382 -2.40820483 -0.03541478 0 0 Z " fill="#FE3434" transform="translate(324.75,311.9375)"/>
<path d="M0 0 C4.95 0 9.9 0 15 0 C15.33 2.31 15.66 4.62 16 7 C14.68 6.67 13.36 6.34 12 6 C12 4.35 12 2.7 12 1 C8.04 1 4.08 1 0 1 C0 0.67 0 0.34 0 0 Z " fill="#7F695F" transform="translate(299,265)"/>
<path d="M0 0 C0.66 0.99 1.32 1.98 2 3 C1.34 4.32 0.68 5.64 0 7 C-0.66 7 -1.32 7 -2 7 C-2.99 10.96 -3.98 14.92 -5 19 C-5.33 19 -5.66 19 -6 19 C-5.47736695 11.8137955 -3.19357866 6.38715733 0 0 Z " fill="#EDECEC" transform="translate(694,82)"/>
<path d="M0 0 C3.63 0 7.26 0 11 0 C11 0.66 11 1.32 11 2 C8.59454362 3.20272819 7.05003047 3.10071472 4.375 3.0625 C3.14910156 3.04896484 3.14910156 3.04896484 1.8984375 3.03515625 C0.95871094 3.01775391 0.95871094 3.01775391 0 3 C0 2.01 0 1.02 0 0 Z " fill="#0B0E0E" transform="translate(338,363)"/>
<path d="M0 0 C1.32 0.33 2.64 0.66 4 1 C4 1.66 4 2.32 4 3 C3.01 3 2.02 3 1 3 C1.350625 3.598125 1.70125 4.19625 2.0625 4.8125 C3 7 3 7 2 10 C1.608125 9.195625 1.21625 8.39125 0.8125 7.5625 C-0.76948191 4.76935262 -0.76948191 4.76935262 -3.6875 4.1875 C-4.8321875 4.0946875 -4.8321875 4.0946875 -6 4 C-2.25 2 -2.25 2 0 2 C0 1.34 0 0.68 0 0 Z " fill="#D0BA77" transform="translate(335,379)"/>
<path d="M0 0 C1.32 0.33 2.64 0.66 4 1 C4.6875 2.75 4.6875 2.75 5 5 C3.5625 7.25 3.5625 7.25 2 9 C0.14223235 5.86501708 -0.20140476 3.62528568 0 0 Z " fill="#FFC4A7" transform="translate(330,303)"/>
<path d="M0 0 C1.32 0 2.64 0 4 0 C4 2.31 4 4.62 4 7 C3.34 6.01 2.68 5.02 2 4 C-0.88595946 3.41518879 -0.88595946 3.41518879 -4.125 3.3125 C-5.22070312 3.24675781 -6.31640625 3.18101562 -7.4453125 3.11328125 C-8.28835938 3.07589844 -9.13140625 3.03851563 -10 3 C-10 2.67 -10 2.34 -10 2 C-9.04287109 1.90912109 -9.04287109 1.90912109 -8.06640625 1.81640625 C-6.82697266 1.69072266 -6.82697266 1.69072266 -5.5625 1.5625 C-4.73878906 1.48128906 -3.91507812 1.40007812 -3.06640625 1.31640625 C-1.01337975 1.21069185 -1.01337975 1.21069185 0 0 Z " fill="#CFC7A5" transform="translate(352,345)"/>
<path d="M0 0 C0.99 1.485 0.99 1.485 2 3 C2.66 2.34 3.32 1.68 4 1 C4.33 3.97 4.66 6.94 5 10 C4.01 10.33 3.02 10.66 2 11 C0.80712589 7.12315913 0 4.08378077 0 0 Z " fill="#FF4747" transform="translate(313,338)"/>
<path d="M0 0 C4.70054457 0.21366112 9.41428541 0.96451606 14 2 C14 2.33 14 2.66 14 3 C12.25034642 3.05429959 10.50020213 3.09292823 8.75 3.125 C7.77546875 3.14820313 6.8009375 3.17140625 5.796875 3.1953125 C2.9803502 2.99862781 1.39050964 2.44568916 -1 1 C-0.67 0.67 -0.34 0.34 0 0 Z " fill="#C6262F" transform="translate(727,143)"/>
<path d="M0 0 C1.55136786 2.46393719 2.03039129 3.68089146 1.75 6.625 C1 9 1 9 -1 11 C-1.33 7.7 -1.66 4.4 -2 1 C-1.34 0.67 -0.68 0.34 0 0 Z " fill="#FF3636" transform="translate(319,356)"/>
<path d="M0 0 C1.65 0 3.3 0 5 0 C5 0.66 5 1.32 5 2 C5.94875 1.95875 6.8975 1.9175 7.875 1.875 C11 2 11 2 13 4 C11.20793453 3.85915204 9.41635083 3.71216299 7.625 3.5625 C6.62726563 3.48128906 5.62953125 3.40007812 4.6015625 3.31640625 C2 3 2 3 0 2 C0 1.34 0 0.68 0 0 Z " fill="#DFE4E5" transform="translate(294,259)"/>
<path d="M0 0 C-0.99 0.66 -1.98 1.32 -3 2 C-3.25030977 4.58380177 -3.25030977 4.58380177 -3 7 C-3.66 6.01 -4.32 5.02 -5 4 C-5.99 4.495 -5.99 4.495 -7 5 C-7 3.35 -7 1.7 -7 0 C-4.3333581 -1.33332095 -2.83319697 -0.67102033 0 0 Z " fill="#FF4040" transform="translate(339,435)"/>
<path d="M0 0 C0.66 0 1.32 0 2 0 C2.96070434 2.88211302 3.10581883 4.69850044 3.0625 7.6875 C3.05347656 8.49574219 3.04445313 9.30398438 3.03515625 10.13671875 C3.02355469 10.75160156 3.01195312 11.36648438 3 12 C0.7655402 7.96707255 0.45503257 4.55032566 0 0 Z " fill="#FF0303" transform="translate(353,430)"/>
<path d="M0 0 C1.485 0.99 1.485 0.99 3 2 C2.835 3.051875 2.67 4.10375 2.5 5.1875 C2.10430322 8.20468796 1.90821029 10.97093972 2 14 C0.09391902 10.78817851 -0.22266247 8.46117397 -0.125 4.75 C-0.09792969 3.41195313 -0.09792969 3.41195313 -0.0703125 2.046875 C-0.04710937 1.37140625 -0.02390625 0.6959375 0 0 Z " fill="#FF3B3B" transform="translate(328,410)"/>
<path d="M0 0 C0.66 0.33 1.32 0.66 2 1 C-0.31 3.64 -2.62 6.28 -5 9 C-5.66 8.67 -6.32 8.34 -7 8 C-4.69 5.36 -2.38 2.72 0 0 Z " fill="#EFD5D6" transform="translate(692,120)"/>
<path d="M0 0 C1.36118461 2.24195113 2.06138028 3.47826762 1.75 6.125 C1 8 1 8 -1 10 C-1.33 7.36 -1.66 4.72 -2 2 C-1.34 2 -0.68 2 0 2 C0 1.34 0 0.68 0 0 Z " fill="#FF2E2E" transform="translate(322,371)"/>
<path d="M0 0 C0.99 0 1.98 0 3 0 C3 3.3 3 6.6 3 10 C2.34 8.68 1.68 7.36 1 6 C0.67 5.67 0.34 5.34 0 5 C-0.04063832 3.33382885 -0.042721 1.66611905 0 0 Z " fill="#E7060E" transform="translate(306,298)"/>
<path d="M0 0 C0.36923077 4.55384615 0.36923077 4.55384615 -1.5 6.8125 C-1.995 7.204375 -2.49 7.59625 -3 8 C-3 7.34 -3 6.68 -3 6 C-3.66 5.67 -4.32 5.34 -5 5 C-4.01 5 -3.02 5 -2 5 C-2 4.34 -2 3.68 -2 3 C-2.66 3 -3.32 3 -4 3 C-4 2.34 -4 1.68 -4 1 C-2 0 -2 0 0 0 Z " fill="#F5F7EA" transform="translate(355,371)"/>
<path d="M0 0 C-1.125 1.5 -1.125 1.5 -3 3 C-6.1875 3.1875 -6.1875 3.1875 -9 3 C-9.33 2.34 -9.66 1.68 -10 1 C-6.61981469 -0.04005702 -3.5219721 -0.08004482 0 0 Z " fill="#FC3B35" transform="translate(327,330)"/>
<path d="M0 0 C0.66 0 1.32 0 2 0 C2.625 3.375 2.625 3.375 3 7 C2.34 7.66 1.68 8.32 1 9 C-1.125 3.375 -1.125 3.375 0 0 Z " fill="#FD1411" transform="translate(330,309)"/>
<path d="M0 0 C1.32 0 2.64 0 4 0 C3.67 1.65 3.34 3.3 3 5 C1.68 4.34 0.36 3.68 -1 3 C-0.67 2.01 -0.34 1.02 0 0 Z " fill="#2F2B2B" transform="translate(703,85)"/>
<path d="M0 0 C1.2065625 0.0309375 1.2065625 0.0309375 2.4375 0.0625 C1.4475 2.0425 0.4575 4.0225 -0.5625 6.0625 C-1.2225 6.0625 -1.8825 6.0625 -2.5625 6.0625 C-2.94468767 4.40635343 -3.27645102 2.73792976 -3.5625 1.0625 C-2.5625 0.0625 -2.5625 0.0625 0 0 Z " fill="#FEFBFA" transform="translate(705.5625,71.9375)"/>
<path d="M0 0 C1.32 0 2.64 0 4 0 C4 2.31 4 4.62 4 7 C3.67 6.01 3.34 5.02 3 4 C2.01 4 1.02 4 0 4 C0 2.68 0 1.36 0 0 Z " fill="#C5AB59" transform="translate(345,404)"/>
<path d="M0 0 C0.66 0.99 1.32 1.98 2 3 C1.125 6.1875 1.125 6.1875 0 9 C-0.66 9 -1.32 9 -2 9 C-1.125 2.25 -1.125 2.25 0 0 Z " fill="#F1F0DB" transform="translate(335,306)"/>
<path d="M0 0 C2.31 0 4.62 0 7 0 C6.360625 0.165 5.72125 0.33 5.0625 0.5 C2.83880759 1.781786 2.83880759 1.781786 2.51171875 3.9140625 C2.2724022 5.93575155 2.13106972 7.96841939 2 10 C1.67 10 1.34 10 1 10 C0.67 6.7 0.34 3.4 0 0 Z " fill="#EFEFEF" transform="translate(721,93)"/>
<path d="M0 0 C1.32 0.33 2.64 0.66 4 1 C1.36 2.98 -1.28 4.96 -4 7 C-2.73033708 1.92134831 -2.73033708 1.92134831 0 0 Z " fill="#CC3C44" transform="translate(693,50)"/>
<path d="M0 0 C1.65 0 3.3 0 5 0 C5 1.32 5 2.64 5 4 C4.01 4.33 3.02 4.66 2 5 C1.34 4.34 0.68 3.68 0 3 C0 2.01 0 1.02 0 0 Z " fill="#BABAA0" transform="translate(299,248)"/>
<path d="M0 0 C0.33 0.99 0.66 1.98 1 3 C1.66 3.33 2.32 3.66 3 4 C2.34 4 1.68 4 1 4 C0.67 4.66 0.34 5.32 0 6 C-1.32 5.34 -2.64 4.68 -4 4 C-2.68 2.68 -1.36 1.36 0 0 Z " fill="#FCCCB8" transform="translate(702,75)"/>
<path d="M0 0 C1.32 0.33 2.64 0.66 4 1 C4 1.99 4 2.98 4 4 C2.68 4.33 1.36 4.66 0 5 C0 3.35 0 1.7 0 0 Z " fill="#D7D49C" transform="translate(347,386)"/>
<path d="M0 0 C0 0.66 0 1.32 0 2 C0.66 2 1.32 2 2 2 C2 2.66 2 3.32 2 4 C0.68 4 -0.64 4 -2 4 C-2 3.34 -2 2.68 -2 2 C-3.32 1.67 -4.64 1.34 -6 1 C-3 0 -3 0 0 0 Z " fill="#C9D88D" transform="translate(351,372)"/>
<path d="M0 0 C0.66 0 1.32 0 2 0 C2.66 1.98 3.32 3.96 4 6 C2.68 6 1.36 6 0 6 C0 4.02 0 2.04 0 0 Z " fill="#46230E" transform="translate(314,265)"/>
<path d="M0 0 C1.98 0.495 1.98 0.495 4 1 C3.67 1.99 3.34 2.98 3 4 C1.68 4 0.36 4 -1 4 C-0.67 2.68 -0.34 1.36 0 0 Z " fill="#231E1E" transform="translate(710,77)"/>
</svg>
